<mxfile host="app.diagrams.net" modified="2023-06-14T09:14:55.489Z" agent="Mozilla/5.0 (Windows NT 10.0; Win64; x64) AppleWebKit/537.36 (KHTML, like Gecko) Chrome/114.0.0.0 Safari/537.36" etag="_FEEXo30ndZ56bCmeMdq" version="21.3.8" type="device">
  <diagram name="第 1 页" id="Tfs_s26PXlx9I9SZavEw">
    <mxGraphModel dx="2550" dy="1362" grid="1" gridSize="10" guides="1" tooltips="1" connect="1" arrows="1" fold="1" page="0" pageScale="1" pageWidth="827" pageHeight="1169" math="0" shadow="0">
      <root>
        <mxCell id="0" />
        <mxCell id="1" parent="0" />
        <mxCell id="FJ-YMm4uMYwA0VOCurAw-1" value="Canvas" style="swimlane;fontStyle=1;align=center;verticalAlign=top;childLayout=stackLayout;horizontal=1;startSize=26;horizontalStack=0;resizeParent=1;resizeParentMax=0;resizeLast=0;collapsible=1;marginBottom=0;whiteSpace=wrap;html=1;" parent="1" vertex="1">
          <mxGeometry x="437.5" y="-280" width="255" height="502" as="geometry" />
        </mxCell>
        <mxCell id="FJ-YMm4uMYwA0VOCurAw-2" value="- instance: Canvas" style="text;strokeColor=none;fillColor=none;align=left;verticalAlign=top;spacingLeft=4;spacingRight=4;overflow=hidden;rotatable=0;points=[[0,0.5],[1,0.5]];portConstraint=eastwest;whiteSpace=wrap;html=1;" parent="FJ-YMm4uMYwA0VOCurAw-1" vertex="1">
          <mxGeometry y="26" width="255" height="26" as="geometry" />
        </mxCell>
        <mxCell id="FJ-YMm4uMYwA0VOCurAw-163" value="- listener: EventListener" style="text;strokeColor=none;fillColor=none;align=left;verticalAlign=top;spacingLeft=4;spacingRight=4;overflow=hidden;rotatable=0;points=[[0,0.5],[1,0.5]];portConstraint=eastwest;whiteSpace=wrap;html=1;" parent="FJ-YMm4uMYwA0VOCurAw-1" vertex="1">
          <mxGeometry y="52" width="255" height="26" as="geometry" />
        </mxCell>
        <mxCell id="FJ-YMm4uMYwA0VOCurAw-165" value="# currentMode: Mode" style="text;strokeColor=none;fillColor=none;align=left;verticalAlign=top;spacingLeft=4;spacingRight=4;overflow=hidden;rotatable=0;points=[[0,0.5],[1,0.5]];portConstraint=eastwest;whiteSpace=wrap;html=1;" parent="FJ-YMm4uMYwA0VOCurAw-1" vertex="1">
          <mxGeometry y="78" width="255" height="26" as="geometry" />
        </mxCell>
        <mxCell id="FJ-YMm4uMYwA0VOCurAw-166" value="- shapes: ArrayList" style="text;strokeColor=none;fillColor=none;align=left;verticalAlign=top;spacingLeft=4;spacingRight=4;overflow=hidden;rotatable=0;points=[[0,0.5],[1,0.5]];portConstraint=eastwest;whiteSpace=wrap;html=1;" parent="FJ-YMm4uMYwA0VOCurAw-1" vertex="1">
          <mxGeometry y="104" width="255" height="26" as="geometry" />
        </mxCell>
        <mxCell id="FJ-YMm4uMYwA0VOCurAw-167" value="+ tempLine: Shape" style="text;strokeColor=none;fillColor=none;align=left;verticalAlign=top;spacingLeft=4;spacingRight=4;overflow=hidden;rotatable=0;points=[[0,0.5],[1,0.5]];portConstraint=eastwest;whiteSpace=wrap;html=1;" parent="FJ-YMm4uMYwA0VOCurAw-1" vertex="1">
          <mxGeometry y="130" width="255" height="26" as="geometry" />
        </mxCell>
        <mxCell id="FJ-YMm4uMYwA0VOCurAw-164" value="+ SelectedArea: Rectangle" style="text;strokeColor=none;fillColor=none;align=left;verticalAlign=top;spacingLeft=4;spacingRight=4;overflow=hidden;rotatable=0;points=[[0,0.5],[1,0.5]];portConstraint=eastwest;whiteSpace=wrap;html=1;" parent="FJ-YMm4uMYwA0VOCurAw-1" vertex="1">
          <mxGeometry y="156" width="255" height="26" as="geometry" />
        </mxCell>
        <mxCell id="FJ-YMm4uMYwA0VOCurAw-162" value="+ selectedObj: Shape" style="text;strokeColor=none;fillColor=none;align=left;verticalAlign=top;spacingLeft=4;spacingRight=4;overflow=hidden;rotatable=0;points=[[0,0.5],[1,0.5]];portConstraint=eastwest;whiteSpace=wrap;html=1;" parent="FJ-YMm4uMYwA0VOCurAw-1" vertex="1">
          <mxGeometry y="182" width="255" height="26" as="geometry" />
        </mxCell>
        <mxCell id="FJ-YMm4uMYwA0VOCurAw-3" value="" style="line;strokeWidth=1;fillColor=none;align=left;verticalAlign=middle;spacingTop=-1;spacingLeft=3;spacingRight=3;rotatable=0;labelPosition=right;points=[];portConstraint=eastwest;strokeColor=inherit;" parent="FJ-YMm4uMYwA0VOCurAw-1" vertex="1">
          <mxGeometry y="208" width="255" height="8" as="geometry" />
        </mxCell>
        <mxCell id="FJ-YMm4uMYwA0VOCurAw-4" value="- Canvas()" style="text;strokeColor=none;fillColor=none;align=left;verticalAlign=top;spacingLeft=4;spacingRight=4;overflow=hidden;rotatable=0;points=[[0,0.5],[1,0.5]];portConstraint=eastwest;whiteSpace=wrap;html=1;" parent="FJ-YMm4uMYwA0VOCurAw-1" vertex="1">
          <mxGeometry y="216" width="255" height="26" as="geometry" />
        </mxCell>
        <mxCell id="FJ-YMm4uMYwA0VOCurAw-170" value="+ getInstance(): Canvas" style="text;strokeColor=none;fillColor=none;align=left;verticalAlign=top;spacingLeft=4;spacingRight=4;overflow=hidden;rotatable=0;points=[[0,0.5],[1,0.5]];portConstraint=eastwest;whiteSpace=wrap;html=1;" parent="FJ-YMm4uMYwA0VOCurAw-1" vertex="1">
          <mxGeometry y="242" width="255" height="26" as="geometry" />
        </mxCell>
        <mxCell id="FJ-YMm4uMYwA0VOCurAw-173" value="+ setCurrentMode(): void" style="text;strokeColor=none;fillColor=none;align=left;verticalAlign=top;spacingLeft=4;spacingRight=4;overflow=hidden;rotatable=0;points=[[0,0.5],[1,0.5]];portConstraint=eastwest;whiteSpace=wrap;html=1;" parent="FJ-YMm4uMYwA0VOCurAw-1" vertex="1">
          <mxGeometry y="268" width="255" height="26" as="geometry" />
        </mxCell>
        <mxCell id="FJ-YMm4uMYwA0VOCurAw-174" value="+ reset(): void" style="text;strokeColor=none;fillColor=none;align=left;verticalAlign=top;spacingLeft=4;spacingRight=4;overflow=hidden;rotatable=0;points=[[0,0.5],[1,0.5]];portConstraint=eastwest;whiteSpace=wrap;html=1;" parent="FJ-YMm4uMYwA0VOCurAw-1" vertex="1">
          <mxGeometry y="294" width="255" height="26" as="geometry" />
        </mxCell>
        <mxCell id="FJ-YMm4uMYwA0VOCurAw-177" value="+ addShape(Shape shape): void" style="text;strokeColor=none;fillColor=none;align=left;verticalAlign=top;spacingLeft=4;spacingRight=4;overflow=hidden;rotatable=0;points=[[0,0.5],[1,0.5]];portConstraint=eastwest;whiteSpace=wrap;html=1;" parent="FJ-YMm4uMYwA0VOCurAw-1" vertex="1">
          <mxGeometry y="320" width="255" height="26" as="geometry" />
        </mxCell>
        <mxCell id="FJ-YMm4uMYwA0VOCurAw-176" value="+ getShapeList(): ArrayList" style="text;strokeColor=none;fillColor=none;align=left;verticalAlign=top;spacingLeft=4;spacingRight=4;overflow=hidden;rotatable=0;points=[[0,0.5],[1,0.5]];portConstraint=eastwest;whiteSpace=wrap;html=1;" parent="FJ-YMm4uMYwA0VOCurAw-1" vertex="1">
          <mxGeometry y="346" width="255" height="26" as="geometry" />
        </mxCell>
        <mxCell id="FJ-YMm4uMYwA0VOCurAw-175" value="+ groupShape(): void" style="text;strokeColor=none;fillColor=none;align=left;verticalAlign=top;spacingLeft=4;spacingRight=4;overflow=hidden;rotatable=0;points=[[0,0.5],[1,0.5]];portConstraint=eastwest;whiteSpace=wrap;html=1;" parent="FJ-YMm4uMYwA0VOCurAw-1" vertex="1">
          <mxGeometry y="372" width="255" height="26" as="geometry" />
        </mxCell>
        <mxCell id="FJ-YMm4uMYwA0VOCurAw-172" value="+ removeGroup(): void" style="text;strokeColor=none;fillColor=none;align=left;verticalAlign=top;spacingLeft=4;spacingRight=4;overflow=hidden;rotatable=0;points=[[0,0.5],[1,0.5]];portConstraint=eastwest;whiteSpace=wrap;html=1;" parent="FJ-YMm4uMYwA0VOCurAw-1" vertex="1">
          <mxGeometry y="398" width="255" height="26" as="geometry" />
        </mxCell>
        <mxCell id="FJ-YMm4uMYwA0VOCurAw-171" value="+ changeObjName(String name): void" style="text;strokeColor=none;fillColor=none;align=left;verticalAlign=top;spacingLeft=4;spacingRight=4;overflow=hidden;rotatable=0;points=[[0,0.5],[1,0.5]];portConstraint=eastwest;whiteSpace=wrap;html=1;" parent="FJ-YMm4uMYwA0VOCurAw-1" vertex="1">
          <mxGeometry y="424" width="255" height="26" as="geometry" />
        </mxCell>
        <mxCell id="FJ-YMm4uMYwA0VOCurAw-169" value="- checkSelectedArea(Shape shape): boolean" style="text;strokeColor=none;fillColor=none;align=left;verticalAlign=top;spacingLeft=4;spacingRight=4;overflow=hidden;rotatable=0;points=[[0,0.5],[1,0.5]];portConstraint=eastwest;whiteSpace=wrap;html=1;" parent="FJ-YMm4uMYwA0VOCurAw-1" vertex="1">
          <mxGeometry y="450" width="255" height="26" as="geometry" />
        </mxCell>
        <mxCell id="FJ-YMm4uMYwA0VOCurAw-168" value="+ paint(Graphics g): void" style="text;strokeColor=none;fillColor=none;align=left;verticalAlign=top;spacingLeft=4;spacingRight=4;overflow=hidden;rotatable=0;points=[[0,0.5],[1,0.5]];portConstraint=eastwest;whiteSpace=wrap;html=1;" parent="FJ-YMm4uMYwA0VOCurAw-1" vertex="1">
          <mxGeometry y="476" width="255" height="26" as="geometry" />
        </mxCell>
        <mxCell id="FJ-YMm4uMYwA0VOCurAw-5" value="createLineMode" style="swimlane;fontStyle=1;align=center;verticalAlign=top;childLayout=stackLayout;horizontal=1;startSize=26;horizontalStack=0;resizeParent=1;resizeParentMax=0;resizeLast=0;collapsible=1;marginBottom=0;whiteSpace=wrap;html=1;" parent="1" vertex="1">
          <mxGeometry x="-459" y="380" width="230" height="138" as="geometry" />
        </mxCell>
        <mxCell id="FJ-YMm4uMYwA0VOCurAw-6" value="+ field: type" style="text;strokeColor=none;fillColor=none;align=left;verticalAlign=top;spacingLeft=4;spacingRight=4;overflow=hidden;rotatable=0;points=[[0,0.5],[1,0.5]];portConstraint=eastwest;whiteSpace=wrap;html=1;" parent="FJ-YMm4uMYwA0VOCurAw-5" vertex="1">
          <mxGeometry y="26" width="230" height="26" as="geometry" />
        </mxCell>
        <mxCell id="FJ-YMm4uMYwA0VOCurAw-7" value="" style="line;strokeWidth=1;fillColor=none;align=left;verticalAlign=middle;spacingTop=-1;spacingLeft=3;spacingRight=3;rotatable=0;labelPosition=right;points=[];portConstraint=eastwest;strokeColor=inherit;" parent="FJ-YMm4uMYwA0VOCurAw-5" vertex="1">
          <mxGeometry y="52" width="230" height="8" as="geometry" />
        </mxCell>
        <mxCell id="FJ-YMm4uMYwA0VOCurAw-34" value="+ mouseDraged(MouseEvent e): void" style="text;strokeColor=none;fillColor=none;align=left;verticalAlign=top;spacingLeft=4;spacingRight=4;overflow=hidden;rotatable=0;points=[[0,0.5],[1,0.5]];portConstraint=eastwest;whiteSpace=wrap;html=1;" parent="FJ-YMm4uMYwA0VOCurAw-5" vertex="1">
          <mxGeometry y="60" width="230" height="26" as="geometry" />
        </mxCell>
        <mxCell id="FJ-YMm4uMYwA0VOCurAw-33" value="+ mouseReleased(MouseEvent e): void" style="text;strokeColor=none;fillColor=none;align=left;verticalAlign=top;spacingLeft=4;spacingRight=4;overflow=hidden;rotatable=0;points=[[0,0.5],[1,0.5]];portConstraint=eastwest;whiteSpace=wrap;html=1;" parent="FJ-YMm4uMYwA0VOCurAw-5" vertex="1">
          <mxGeometry y="86" width="230" height="26" as="geometry" />
        </mxCell>
        <mxCell id="FJ-YMm4uMYwA0VOCurAw-32" value="+ mousePressed(MouseEvent e): void" style="text;strokeColor=none;fillColor=none;align=left;verticalAlign=top;spacingLeft=4;spacingRight=4;overflow=hidden;rotatable=0;points=[[0,0.5],[1,0.5]];portConstraint=eastwest;whiteSpace=wrap;html=1;" parent="FJ-YMm4uMYwA0VOCurAw-5" vertex="1">
          <mxGeometry y="112" width="230" height="26" as="geometry" />
        </mxCell>
        <mxCell id="FJ-YMm4uMYwA0VOCurAw-9" value="&amp;lt;&amp;lt;Abstract&amp;gt;&amp;gt;&lt;br&gt;Mode" style="swimlane;fontStyle=1;align=center;verticalAlign=top;childLayout=stackLayout;horizontal=1;startSize=40;horizontalStack=0;resizeParent=1;resizeParentMax=0;resizeLast=0;collapsible=1;marginBottom=0;whiteSpace=wrap;html=1;" parent="1" vertex="1">
          <mxGeometry x="20" y="40" width="240" height="256" as="geometry" />
        </mxCell>
        <mxCell id="FJ-YMm4uMYwA0VOCurAw-10" value="# canvas.getInstance: Canvas" style="text;strokeColor=none;fillColor=none;align=left;verticalAlign=top;spacingLeft=4;spacingRight=4;overflow=hidden;rotatable=0;points=[[0,0.5],[1,0.5]];portConstraint=eastwest;whiteSpace=wrap;html=1;" parent="FJ-YMm4uMYwA0VOCurAw-9" vertex="1">
          <mxGeometry y="40" width="240" height="26" as="geometry" />
        </mxCell>
        <mxCell id="FJ-YMm4uMYwA0VOCurAw-11" value="" style="line;strokeWidth=1;fillColor=none;align=left;verticalAlign=middle;spacingTop=-1;spacingLeft=3;spacingRight=3;rotatable=0;labelPosition=right;points=[];portConstraint=eastwest;strokeColor=inherit;" parent="FJ-YMm4uMYwA0VOCurAw-9" vertex="1">
          <mxGeometry y="66" width="240" height="8" as="geometry" />
        </mxCell>
        <mxCell id="FJ-YMm4uMYwA0VOCurAw-12" value="+ mousePressed(MouseEvent e): void" style="text;strokeColor=none;fillColor=none;align=left;verticalAlign=top;spacingLeft=4;spacingRight=4;overflow=hidden;rotatable=0;points=[[0,0.5],[1,0.5]];portConstraint=eastwest;whiteSpace=wrap;html=1;" parent="FJ-YMm4uMYwA0VOCurAw-9" vertex="1">
          <mxGeometry y="74" width="240" height="26" as="geometry" />
        </mxCell>
        <mxCell id="FJ-YMm4uMYwA0VOCurAw-27" value="+ mouseReleased(MouseEvent e): void" style="text;strokeColor=none;fillColor=none;align=left;verticalAlign=top;spacingLeft=4;spacingRight=4;overflow=hidden;rotatable=0;points=[[0,0.5],[1,0.5]];portConstraint=eastwest;whiteSpace=wrap;html=1;" parent="FJ-YMm4uMYwA0VOCurAw-9" vertex="1">
          <mxGeometry y="100" width="240" height="26" as="geometry" />
        </mxCell>
        <mxCell id="FJ-YMm4uMYwA0VOCurAw-30" value="+ mouseDraged(MouseEvent e): void" style="text;strokeColor=none;fillColor=none;align=left;verticalAlign=top;spacingLeft=4;spacingRight=4;overflow=hidden;rotatable=0;points=[[0,0.5],[1,0.5]];portConstraint=eastwest;whiteSpace=wrap;html=1;" parent="FJ-YMm4uMYwA0VOCurAw-9" vertex="1">
          <mxGeometry y="126" width="240" height="26" as="geometry" />
        </mxCell>
        <mxCell id="FJ-YMm4uMYwA0VOCurAw-31" value="+ mouseClicked(MouseEvent e): void" style="text;strokeColor=none;fillColor=none;align=left;verticalAlign=top;spacingLeft=4;spacingRight=4;overflow=hidden;rotatable=0;points=[[0,0.5],[1,0.5]];portConstraint=eastwest;whiteSpace=wrap;html=1;" parent="FJ-YMm4uMYwA0VOCurAw-9" vertex="1">
          <mxGeometry y="152" width="240" height="26" as="geometry" />
        </mxCell>
        <mxCell id="FJ-YMm4uMYwA0VOCurAw-29" value="+ mouseMoved(MouseEvent e): void" style="text;strokeColor=none;fillColor=none;align=left;verticalAlign=top;spacingLeft=4;spacingRight=4;overflow=hidden;rotatable=0;points=[[0,0.5],[1,0.5]];portConstraint=eastwest;whiteSpace=wrap;html=1;" parent="FJ-YMm4uMYwA0VOCurAw-9" vertex="1">
          <mxGeometry y="178" width="240" height="26" as="geometry" />
        </mxCell>
        <mxCell id="FJ-YMm4uMYwA0VOCurAw-28" value="+ mouseEntered(MouseEvent e): void" style="text;strokeColor=none;fillColor=none;align=left;verticalAlign=top;spacingLeft=4;spacingRight=4;overflow=hidden;rotatable=0;points=[[0,0.5],[1,0.5]];portConstraint=eastwest;whiteSpace=wrap;html=1;" parent="FJ-YMm4uMYwA0VOCurAw-9" vertex="1">
          <mxGeometry y="204" width="240" height="26" as="geometry" />
        </mxCell>
        <mxCell id="FJ-YMm4uMYwA0VOCurAw-26" value="+ mouseExited(MouseEvent e): void" style="text;strokeColor=none;fillColor=none;align=left;verticalAlign=top;spacingLeft=4;spacingRight=4;overflow=hidden;rotatable=0;points=[[0,0.5],[1,0.5]];portConstraint=eastwest;whiteSpace=wrap;html=1;" parent="FJ-YMm4uMYwA0VOCurAw-9" vertex="1">
          <mxGeometry y="230" width="240" height="26" as="geometry" />
        </mxCell>
        <mxCell id="FJ-YMm4uMYwA0VOCurAw-13" value="createShapeMode" style="swimlane;fontStyle=1;align=center;verticalAlign=top;childLayout=stackLayout;horizontal=1;startSize=26;horizontalStack=0;resizeParent=1;resizeParentMax=0;resizeLast=0;collapsible=1;marginBottom=0;whiteSpace=wrap;html=1;" parent="1" vertex="1">
          <mxGeometry x="-209" y="380" width="240" height="86" as="geometry" />
        </mxCell>
        <mxCell id="FJ-YMm4uMYwA0VOCurAw-14" value="+ field: type" style="text;strokeColor=none;fillColor=none;align=left;verticalAlign=top;spacingLeft=4;spacingRight=4;overflow=hidden;rotatable=0;points=[[0,0.5],[1,0.5]];portConstraint=eastwest;whiteSpace=wrap;html=1;" parent="FJ-YMm4uMYwA0VOCurAw-13" vertex="1">
          <mxGeometry y="26" width="240" height="26" as="geometry" />
        </mxCell>
        <mxCell id="FJ-YMm4uMYwA0VOCurAw-15" value="" style="line;strokeWidth=1;fillColor=none;align=left;verticalAlign=middle;spacingTop=-1;spacingLeft=3;spacingRight=3;rotatable=0;labelPosition=right;points=[];portConstraint=eastwest;strokeColor=inherit;" parent="FJ-YMm4uMYwA0VOCurAw-13" vertex="1">
          <mxGeometry y="52" width="240" height="8" as="geometry" />
        </mxCell>
        <mxCell id="FJ-YMm4uMYwA0VOCurAw-38" value="+ mousePressed(MouseEvent e): void" style="text;strokeColor=none;fillColor=none;align=left;verticalAlign=top;spacingLeft=4;spacingRight=4;overflow=hidden;rotatable=0;points=[[0,0.5],[1,0.5]];portConstraint=eastwest;whiteSpace=wrap;html=1;" parent="FJ-YMm4uMYwA0VOCurAw-13" vertex="1">
          <mxGeometry y="60" width="240" height="26" as="geometry" />
        </mxCell>
        <mxCell id="FJ-YMm4uMYwA0VOCurAw-17" value="selectMode" style="swimlane;fontStyle=1;align=center;verticalAlign=top;childLayout=stackLayout;horizontal=1;startSize=26;horizontalStack=0;resizeParent=1;resizeParentMax=0;resizeLast=0;collapsible=1;marginBottom=0;whiteSpace=wrap;html=1;" parent="1" vertex="1">
          <mxGeometry x="60" y="380" width="230" height="138" as="geometry" />
        </mxCell>
        <mxCell id="FJ-YMm4uMYwA0VOCurAw-18" value="+ field: type" style="text;strokeColor=none;fillColor=none;align=left;verticalAlign=top;spacingLeft=4;spacingRight=4;overflow=hidden;rotatable=0;points=[[0,0.5],[1,0.5]];portConstraint=eastwest;whiteSpace=wrap;html=1;" parent="FJ-YMm4uMYwA0VOCurAw-17" vertex="1">
          <mxGeometry y="26" width="230" height="26" as="geometry" />
        </mxCell>
        <mxCell id="FJ-YMm4uMYwA0VOCurAw-19" value="" style="line;strokeWidth=1;fillColor=none;align=left;verticalAlign=middle;spacingTop=-1;spacingLeft=3;spacingRight=3;rotatable=0;labelPosition=right;points=[];portConstraint=eastwest;strokeColor=inherit;" parent="FJ-YMm4uMYwA0VOCurAw-17" vertex="1">
          <mxGeometry y="52" width="230" height="8" as="geometry" />
        </mxCell>
        <mxCell id="FJ-YMm4uMYwA0VOCurAw-37" value="+ mouseDraged(MouseEvent e): void" style="text;strokeColor=none;fillColor=none;align=left;verticalAlign=top;spacingLeft=4;spacingRight=4;overflow=hidden;rotatable=0;points=[[0,0.5],[1,0.5]];portConstraint=eastwest;whiteSpace=wrap;html=1;" parent="FJ-YMm4uMYwA0VOCurAw-17" vertex="1">
          <mxGeometry y="60" width="230" height="26" as="geometry" />
        </mxCell>
        <mxCell id="FJ-YMm4uMYwA0VOCurAw-36" value="+ mouseReleased(MouseEvent e): void" style="text;strokeColor=none;fillColor=none;align=left;verticalAlign=top;spacingLeft=4;spacingRight=4;overflow=hidden;rotatable=0;points=[[0,0.5],[1,0.5]];portConstraint=eastwest;whiteSpace=wrap;html=1;" parent="FJ-YMm4uMYwA0VOCurAw-17" vertex="1">
          <mxGeometry y="86" width="230" height="26" as="geometry" />
        </mxCell>
        <mxCell id="FJ-YMm4uMYwA0VOCurAw-35" value="+ mousePressed(MouseEvent e): void" style="text;strokeColor=none;fillColor=none;align=left;verticalAlign=top;spacingLeft=4;spacingRight=4;overflow=hidden;rotatable=0;points=[[0,0.5],[1,0.5]];portConstraint=eastwest;whiteSpace=wrap;html=1;" parent="FJ-YMm4uMYwA0VOCurAw-17" vertex="1">
          <mxGeometry y="112" width="230" height="26" as="geometry" />
        </mxCell>
        <mxCell id="FJ-YMm4uMYwA0VOCurAw-21" value="shapeMode" style="swimlane;fontStyle=1;align=center;verticalAlign=top;childLayout=stackLayout;horizontal=1;startSize=26;horizontalStack=0;resizeParent=1;resizeParentMax=0;resizeLast=0;collapsible=1;marginBottom=0;whiteSpace=wrap;html=1;" parent="1" vertex="1">
          <mxGeometry x="-700" y="590" width="260" height="86" as="geometry" />
        </mxCell>
        <mxCell id="FJ-YMm4uMYwA0VOCurAw-23" value="" style="line;strokeWidth=1;fillColor=none;align=left;verticalAlign=middle;spacingTop=-1;spacingLeft=3;spacingRight=3;rotatable=0;labelPosition=right;points=[];portConstraint=eastwest;strokeColor=inherit;" parent="FJ-YMm4uMYwA0VOCurAw-21" vertex="1">
          <mxGeometry y="26" width="260" height="8" as="geometry" />
        </mxCell>
        <mxCell id="FJ-YMm4uMYwA0VOCurAw-24" value="+ createObj(String objType, Point p): basicObj" style="text;strokeColor=none;fillColor=none;align=left;verticalAlign=top;spacingLeft=4;spacingRight=4;overflow=hidden;rotatable=0;points=[[0,0.5],[1,0.5]];portConstraint=eastwest;whiteSpace=wrap;html=1;" parent="FJ-YMm4uMYwA0VOCurAw-21" vertex="1">
          <mxGeometry y="34" width="260" height="26" as="geometry" />
        </mxCell>
        <mxCell id="FJ-YMm4uMYwA0VOCurAw-39" value="+ createLine(String lineType, Point p): Line" style="text;strokeColor=none;fillColor=none;align=left;verticalAlign=top;spacingLeft=4;spacingRight=4;overflow=hidden;rotatable=0;points=[[0,0.5],[1,0.5]];portConstraint=eastwest;whiteSpace=wrap;html=1;" parent="FJ-YMm4uMYwA0VOCurAw-21" vertex="1">
          <mxGeometry y="60" width="260" height="26" as="geometry" />
        </mxCell>
        <mxCell id="FJ-YMm4uMYwA0VOCurAw-43" value="&amp;lt;&amp;lt;interface&amp;gt;&amp;gt;&lt;br&gt;IshapeMode" style="swimlane;fontStyle=1;align=center;verticalAlign=top;childLayout=stackLayout;horizontal=1;startSize=46;horizontalStack=0;resizeParent=1;resizeParentMax=0;resizeLast=0;collapsible=1;marginBottom=0;whiteSpace=wrap;html=1;" parent="1" vertex="1">
          <mxGeometry x="-330" y="570" width="260" height="106" as="geometry" />
        </mxCell>
        <mxCell id="FJ-YMm4uMYwA0VOCurAw-45" value="" style="line;strokeWidth=1;fillColor=none;align=left;verticalAlign=middle;spacingTop=-1;spacingLeft=3;spacingRight=3;rotatable=0;labelPosition=right;points=[];portConstraint=eastwest;strokeColor=inherit;" parent="FJ-YMm4uMYwA0VOCurAw-43" vertex="1">
          <mxGeometry y="46" width="260" height="8" as="geometry" />
        </mxCell>
        <mxCell id="FJ-YMm4uMYwA0VOCurAw-41" value="+ createLine(String lineType, Point p): Line" style="text;strokeColor=none;fillColor=none;align=left;verticalAlign=top;spacingLeft=4;spacingRight=4;overflow=hidden;rotatable=0;points=[[0,0.5],[1,0.5]];portConstraint=eastwest;whiteSpace=wrap;html=1;" parent="FJ-YMm4uMYwA0VOCurAw-43" vertex="1">
          <mxGeometry y="54" width="260" height="26" as="geometry" />
        </mxCell>
        <mxCell id="FJ-YMm4uMYwA0VOCurAw-40" value="+ createObj(String objType, Point p): basicObj" style="text;strokeColor=none;fillColor=none;align=left;verticalAlign=top;spacingLeft=4;spacingRight=4;overflow=hidden;rotatable=0;points=[[0,0.5],[1,0.5]];portConstraint=eastwest;whiteSpace=wrap;html=1;" parent="FJ-YMm4uMYwA0VOCurAw-43" vertex="1">
          <mxGeometry y="80" width="260" height="26" as="geometry" />
        </mxCell>
        <mxCell id="FJ-YMm4uMYwA0VOCurAw-47" value="Extends" style="endArrow=block;endSize=16;endFill=0;html=1;rounded=0;exitX=0.5;exitY=0;exitDx=0;exitDy=0;entryX=0.442;entryY=1.224;entryDx=0;entryDy=0;entryPerimeter=0;" parent="1" source="FJ-YMm4uMYwA0VOCurAw-5" target="FJ-YMm4uMYwA0VOCurAw-26" edge="1">
          <mxGeometry width="160" relative="1" as="geometry">
            <mxPoint x="-30" y="470" as="sourcePoint" />
            <mxPoint x="130" y="470" as="targetPoint" />
          </mxGeometry>
        </mxCell>
        <mxCell id="FJ-YMm4uMYwA0VOCurAw-48" value="Extends" style="endArrow=block;endSize=16;endFill=0;html=1;rounded=0;exitX=0.5;exitY=0;exitDx=0;exitDy=0;entryX=0.442;entryY=1.007;entryDx=0;entryDy=0;entryPerimeter=0;" parent="1" source="FJ-YMm4uMYwA0VOCurAw-13" target="FJ-YMm4uMYwA0VOCurAw-26" edge="1">
          <mxGeometry width="160" relative="1" as="geometry">
            <mxPoint x="-30" y="470" as="sourcePoint" />
            <mxPoint x="130" y="470" as="targetPoint" />
          </mxGeometry>
        </mxCell>
        <mxCell id="FJ-YMm4uMYwA0VOCurAw-49" value="Extends" style="endArrow=block;endSize=16;endFill=0;html=1;rounded=0;exitX=0.5;exitY=0;exitDx=0;exitDy=0;entryX=0.442;entryY=0.971;entryDx=0;entryDy=0;entryPerimeter=0;" parent="1" source="FJ-YMm4uMYwA0VOCurAw-17" target="FJ-YMm4uMYwA0VOCurAw-26" edge="1">
          <mxGeometry width="160" relative="1" as="geometry">
            <mxPoint x="-30" y="380" as="sourcePoint" />
            <mxPoint x="130" y="380" as="targetPoint" />
          </mxGeometry>
        </mxCell>
        <mxCell id="FJ-YMm4uMYwA0VOCurAw-51" value="" style="endArrow=open;endFill=1;endSize=12;html=1;rounded=0;exitX=0.503;exitY=1.124;exitDx=0;exitDy=0;exitPerimeter=0;entryX=0.5;entryY=0;entryDx=0;entryDy=0;" parent="1" source="FJ-YMm4uMYwA0VOCurAw-32" target="FJ-YMm4uMYwA0VOCurAw-43" edge="1">
          <mxGeometry width="160" relative="1" as="geometry">
            <mxPoint x="-120" y="570" as="sourcePoint" />
            <mxPoint x="40" y="570" as="targetPoint" />
          </mxGeometry>
        </mxCell>
        <mxCell id="FJ-YMm4uMYwA0VOCurAw-52" value="" style="endArrow=open;endFill=1;endSize=12;html=1;rounded=0;exitX=0.53;exitY=0.989;exitDx=0;exitDy=0;exitPerimeter=0;entryX=0.5;entryY=0;entryDx=0;entryDy=0;" parent="1" source="FJ-YMm4uMYwA0VOCurAw-38" target="FJ-YMm4uMYwA0VOCurAw-43" edge="1">
          <mxGeometry width="160" relative="1" as="geometry">
            <mxPoint x="-120" y="570" as="sourcePoint" />
            <mxPoint x="40" y="570" as="targetPoint" />
          </mxGeometry>
        </mxCell>
        <mxCell id="FJ-YMm4uMYwA0VOCurAw-53" value="" style="endArrow=block;dashed=1;endFill=0;endSize=12;html=1;rounded=0;exitX=1;exitY=0.5;exitDx=0;exitDy=0;entryX=0;entryY=0.5;entryDx=0;entryDy=0;" parent="1" source="FJ-YMm4uMYwA0VOCurAw-24" target="FJ-YMm4uMYwA0VOCurAw-41" edge="1">
          <mxGeometry width="160" relative="1" as="geometry">
            <mxPoint x="-110" y="520" as="sourcePoint" />
            <mxPoint x="50" y="520" as="targetPoint" />
          </mxGeometry>
        </mxCell>
        <mxCell id="FJ-YMm4uMYwA0VOCurAw-54" value="&amp;lt;&amp;lt;Abstract&amp;gt;&amp;gt;&lt;br&gt;MyGraphic" style="swimlane;fontStyle=1;align=center;verticalAlign=top;childLayout=stackLayout;horizontal=1;startSize=40;horizontalStack=0;resizeParent=1;resizeParentMax=0;resizeLast=0;collapsible=1;marginBottom=0;whiteSpace=wrap;html=1;" parent="1" vertex="1">
          <mxGeometry x="440" y="350" width="250" height="438" as="geometry" />
        </mxCell>
        <mxCell id="FJ-YMm4uMYwA0VOCurAw-55" value="# x1, y1, x2, y2: int" style="text;strokeColor=none;fillColor=none;align=left;verticalAlign=top;spacingLeft=4;spacingRight=4;overflow=hidden;rotatable=0;points=[[0,0.5],[1,0.5]];portConstraint=eastwest;whiteSpace=wrap;html=1;" parent="FJ-YMm4uMYwA0VOCurAw-54" vertex="1">
          <mxGeometry y="40" width="250" height="26" as="geometry" />
        </mxCell>
        <mxCell id="FJ-YMm4uMYwA0VOCurAw-69" value="+ group_selected: boolean" style="text;strokeColor=none;fillColor=none;align=left;verticalAlign=top;spacingLeft=4;spacingRight=4;overflow=hidden;rotatable=0;points=[[0,0.5],[1,0.5]];portConstraint=eastwest;whiteSpace=wrap;html=1;" parent="FJ-YMm4uMYwA0VOCurAw-54" vertex="1">
          <mxGeometry y="66" width="250" height="26" as="geometry" />
        </mxCell>
        <mxCell id="FJ-YMm4uMYwA0VOCurAw-56" value="" style="line;strokeWidth=1;fillColor=none;align=left;verticalAlign=middle;spacingTop=-1;spacingLeft=3;spacingRight=3;rotatable=0;labelPosition=right;points=[];portConstraint=eastwest;strokeColor=inherit;" parent="FJ-YMm4uMYwA0VOCurAw-54" vertex="1">
          <mxGeometry y="92" width="250" height="8" as="geometry" />
        </mxCell>
        <mxCell id="FJ-YMm4uMYwA0VOCurAw-70" value="+ draw(Graphics g): void" style="text;strokeColor=none;fillColor=none;align=left;verticalAlign=top;spacingLeft=4;spacingRight=4;overflow=hidden;rotatable=0;points=[[0,0.5],[1,0.5]];portConstraint=eastwest;whiteSpace=wrap;html=1;" parent="FJ-YMm4uMYwA0VOCurAw-54" vertex="1">
          <mxGeometry y="100" width="250" height="26" as="geometry" />
        </mxCell>
        <mxCell id="FJ-YMm4uMYwA0VOCurAw-57" value="+ getX1(): int" style="text;strokeColor=none;fillColor=none;align=left;verticalAlign=top;spacingLeft=4;spacingRight=4;overflow=hidden;rotatable=0;points=[[0,0.5],[1,0.5]];portConstraint=eastwest;whiteSpace=wrap;html=1;" parent="FJ-YMm4uMYwA0VOCurAw-54" vertex="1">
          <mxGeometry y="126" width="250" height="26" as="geometry" />
        </mxCell>
        <mxCell id="FJ-YMm4uMYwA0VOCurAw-60" value="+ getY1(): int" style="text;strokeColor=none;fillColor=none;align=left;verticalAlign=top;spacingLeft=4;spacingRight=4;overflow=hidden;rotatable=0;points=[[0,0.5],[1,0.5]];portConstraint=eastwest;whiteSpace=wrap;html=1;" parent="FJ-YMm4uMYwA0VOCurAw-54" vertex="1">
          <mxGeometry y="152" width="250" height="26" as="geometry" />
        </mxCell>
        <mxCell id="FJ-YMm4uMYwA0VOCurAw-61" value="+ getX2(): int" style="text;strokeColor=none;fillColor=none;align=left;verticalAlign=top;spacingLeft=4;spacingRight=4;overflow=hidden;rotatable=0;points=[[0,0.5],[1,0.5]];portConstraint=eastwest;whiteSpace=wrap;html=1;" parent="FJ-YMm4uMYwA0VOCurAw-54" vertex="1">
          <mxGeometry y="178" width="250" height="26" as="geometry" />
        </mxCell>
        <mxCell id="FJ-YMm4uMYwA0VOCurAw-62" value="+ getY2(): int" style="text;strokeColor=none;fillColor=none;align=left;verticalAlign=top;spacingLeft=4;spacingRight=4;overflow=hidden;rotatable=0;points=[[0,0.5],[1,0.5]];portConstraint=eastwest;whiteSpace=wrap;html=1;" parent="FJ-YMm4uMYwA0VOCurAw-54" vertex="1">
          <mxGeometry y="204" width="250" height="26" as="geometry" />
        </mxCell>
        <mxCell id="FJ-YMm4uMYwA0VOCurAw-65" value="+ resetLocation(): void" style="text;strokeColor=none;fillColor=none;align=left;verticalAlign=top;spacingLeft=4;spacingRight=4;overflow=hidden;rotatable=0;points=[[0,0.5],[1,0.5]];portConstraint=eastwest;whiteSpace=wrap;html=1;" parent="FJ-YMm4uMYwA0VOCurAw-54" vertex="1">
          <mxGeometry y="230" width="250" height="26" as="geometry" />
        </mxCell>
        <mxCell id="FJ-YMm4uMYwA0VOCurAw-66" value="+ resetLocation(int moveX, int moveY): void" style="text;strokeColor=none;fillColor=none;align=left;verticalAlign=top;spacingLeft=4;spacingRight=4;overflow=hidden;rotatable=0;points=[[0,0.5],[1,0.5]];portConstraint=eastwest;whiteSpace=wrap;html=1;" parent="FJ-YMm4uMYwA0VOCurAw-54" vertex="1">
          <mxGeometry y="256" width="250" height="26" as="geometry" />
        </mxCell>
        <mxCell id="FJ-YMm4uMYwA0VOCurAw-67" value="+ changeName(String name): void" style="text;strokeColor=none;fillColor=none;align=left;verticalAlign=top;spacingLeft=4;spacingRight=4;overflow=hidden;rotatable=0;points=[[0,0.5],[1,0.5]];portConstraint=eastwest;whiteSpace=wrap;html=1;" parent="FJ-YMm4uMYwA0VOCurAw-54" vertex="1">
          <mxGeometry y="282" width="250" height="26" as="geometry" />
        </mxCell>
        <mxCell id="FJ-YMm4uMYwA0VOCurAw-68" value="+ show(Graphics g): void" style="text;strokeColor=none;fillColor=none;align=left;verticalAlign=top;spacingLeft=4;spacingRight=4;overflow=hidden;rotatable=0;points=[[0,0.5],[1,0.5]];portConstraint=eastwest;whiteSpace=wrap;html=1;" parent="FJ-YMm4uMYwA0VOCurAw-54" vertex="1">
          <mxGeometry y="308" width="250" height="26" as="geometry" />
        </mxCell>
        <mxCell id="FJ-YMm4uMYwA0VOCurAw-63" value="+ inside(Point p): String" style="text;strokeColor=none;fillColor=none;align=left;verticalAlign=top;spacingLeft=4;spacingRight=4;overflow=hidden;rotatable=0;points=[[0,0.5],[1,0.5]];portConstraint=eastwest;whiteSpace=wrap;html=1;" parent="FJ-YMm4uMYwA0VOCurAw-54" vertex="1">
          <mxGeometry y="334" width="250" height="26" as="geometry" />
        </mxCell>
        <mxCell id="FJ-YMm4uMYwA0VOCurAw-64" value="+ getPort(int portIndex): Port" style="text;strokeColor=none;fillColor=none;align=left;verticalAlign=top;spacingLeft=4;spacingRight=4;overflow=hidden;rotatable=0;points=[[0,0.5],[1,0.5]];portConstraint=eastwest;whiteSpace=wrap;html=1;" parent="FJ-YMm4uMYwA0VOCurAw-54" vertex="1">
          <mxGeometry y="360" width="250" height="26" as="geometry" />
        </mxCell>
        <mxCell id="FJ-YMm4uMYwA0VOCurAw-59" value="+ resetSelectedShape(): void" style="text;strokeColor=none;fillColor=none;align=left;verticalAlign=top;spacingLeft=4;spacingRight=4;overflow=hidden;rotatable=0;points=[[0,0.5],[1,0.5]];portConstraint=eastwest;whiteSpace=wrap;html=1;" parent="FJ-YMm4uMYwA0VOCurAw-54" vertex="1">
          <mxGeometry y="386" width="250" height="26" as="geometry" />
        </mxCell>
        <mxCell id="FJ-YMm4uMYwA0VOCurAw-58" value="+ getSelectedShape(): Shape" style="text;strokeColor=none;fillColor=none;align=left;verticalAlign=top;spacingLeft=4;spacingRight=4;overflow=hidden;rotatable=0;points=[[0,0.5],[1,0.5]];portConstraint=eastwest;whiteSpace=wrap;html=1;" parent="FJ-YMm4uMYwA0VOCurAw-54" vertex="1">
          <mxGeometry y="412" width="250" height="26" as="geometry" />
        </mxCell>
        <mxCell id="FJ-YMm4uMYwA0VOCurAw-71" value="&amp;lt;&amp;lt;Abstract&amp;gt;&amp;gt;&lt;br&gt;MyShape" style="swimlane;fontStyle=1;align=center;verticalAlign=top;childLayout=stackLayout;horizontal=1;startSize=40;horizontalStack=0;resizeParent=1;resizeParentMax=0;resizeLast=0;collapsible=1;marginBottom=0;whiteSpace=wrap;html=1;" parent="1" vertex="1">
          <mxGeometry x="60" y="788" width="250" height="360" as="geometry" />
        </mxCell>
        <mxCell id="FJ-YMm4uMYwA0VOCurAw-81" value="- offset: int" style="text;strokeColor=none;fillColor=none;align=left;verticalAlign=top;spacingLeft=4;spacingRight=4;overflow=hidden;rotatable=0;points=[[0,0.5],[1,0.5]];portConstraint=eastwest;whiteSpace=wrap;html=1;" parent="FJ-YMm4uMYwA0VOCurAw-71" vertex="1">
          <mxGeometry y="40" width="250" height="26" as="geometry" />
        </mxCell>
        <mxCell id="FJ-YMm4uMYwA0VOCurAw-84" value="# width, height: int" style="text;strokeColor=none;fillColor=none;align=left;verticalAlign=top;spacingLeft=4;spacingRight=4;overflow=hidden;rotatable=0;points=[[0,0.5],[1,0.5]];portConstraint=eastwest;whiteSpace=wrap;html=1;" parent="FJ-YMm4uMYwA0VOCurAw-71" vertex="1">
          <mxGeometry y="66" width="250" height="26" as="geometry" />
        </mxCell>
        <mxCell id="FJ-YMm4uMYwA0VOCurAw-82" value="# objectName: String" style="text;strokeColor=none;fillColor=none;align=left;verticalAlign=top;spacingLeft=4;spacingRight=4;overflow=hidden;rotatable=0;points=[[0,0.5],[1,0.5]];portConstraint=eastwest;whiteSpace=wrap;html=1;" parent="FJ-YMm4uMYwA0VOCurAw-71" vertex="1">
          <mxGeometry y="92" width="250" height="26" as="geometry" />
        </mxCell>
        <mxCell id="FJ-YMm4uMYwA0VOCurAw-83" value="# font: Fond" style="text;strokeColor=none;fillColor=none;align=left;verticalAlign=top;spacingLeft=4;spacingRight=4;overflow=hidden;rotatable=0;points=[[0,0.5],[1,0.5]];portConstraint=eastwest;whiteSpace=wrap;html=1;" parent="FJ-YMm4uMYwA0VOCurAw-71" vertex="1">
          <mxGeometry y="118" width="250" height="26" as="geometry" />
        </mxCell>
        <mxCell id="FJ-YMm4uMYwA0VOCurAw-72" value="# ports: Array" style="text;strokeColor=none;fillColor=none;align=left;verticalAlign=top;spacingLeft=4;spacingRight=4;overflow=hidden;rotatable=0;points=[[0,0.5],[1,0.5]];portConstraint=eastwest;whiteSpace=wrap;html=1;" parent="FJ-YMm4uMYwA0VOCurAw-71" vertex="1">
          <mxGeometry y="144" width="250" height="26" as="geometry" />
        </mxCell>
        <mxCell id="FJ-YMm4uMYwA0VOCurAw-73" value="" style="line;strokeWidth=1;fillColor=none;align=left;verticalAlign=middle;spacingTop=-1;spacingLeft=3;spacingRight=3;rotatable=0;labelPosition=right;points=[];portConstraint=eastwest;strokeColor=inherit;" parent="FJ-YMm4uMYwA0VOCurAw-71" vertex="1">
          <mxGeometry y="170" width="250" height="8" as="geometry" />
        </mxCell>
        <mxCell id="FJ-YMm4uMYwA0VOCurAw-74" value="+ draw(Grapgics g): void" style="text;strokeColor=none;fillColor=none;align=left;verticalAlign=top;spacingLeft=4;spacingRight=4;overflow=hidden;rotatable=0;points=[[0,0.5],[1,0.5]];portConstraint=eastwest;whiteSpace=wrap;html=1;" parent="FJ-YMm4uMYwA0VOCurAw-71" vertex="1">
          <mxGeometry y="178" width="250" height="26" as="geometry" />
        </mxCell>
        <mxCell id="FJ-YMm4uMYwA0VOCurAw-77" value="+ show(Graphics g): void" style="text;strokeColor=none;fillColor=none;align=left;verticalAlign=top;spacingLeft=4;spacingRight=4;overflow=hidden;rotatable=0;points=[[0,0.5],[1,0.5]];portConstraint=eastwest;whiteSpace=wrap;html=1;" parent="FJ-YMm4uMYwA0VOCurAw-71" vertex="1">
          <mxGeometry y="204" width="250" height="26" as="geometry" />
        </mxCell>
        <mxCell id="FJ-YMm4uMYwA0VOCurAw-76" value="+ inside(Point p): String" style="text;strokeColor=none;fillColor=none;align=left;verticalAlign=top;spacingLeft=4;spacingRight=4;overflow=hidden;rotatable=0;points=[[0,0.5],[1,0.5]];portConstraint=eastwest;whiteSpace=wrap;html=1;" parent="FJ-YMm4uMYwA0VOCurAw-71" vertex="1">
          <mxGeometry y="230" width="250" height="26" as="geometry" />
        </mxCell>
        <mxCell id="FJ-YMm4uMYwA0VOCurAw-78" value="+ getPort(int portIdex): Port" style="text;strokeColor=none;fillColor=none;align=left;verticalAlign=top;spacingLeft=4;spacingRight=4;overflow=hidden;rotatable=0;points=[[0,0.5],[1,0.5]];portConstraint=eastwest;whiteSpace=wrap;html=1;" parent="FJ-YMm4uMYwA0VOCurAw-71" vertex="1">
          <mxGeometry y="256" width="250" height="26" as="geometry" />
        </mxCell>
        <mxCell id="FJ-YMm4uMYwA0VOCurAw-79" value="+ resetLocation(int moveX, int moveY): void" style="text;strokeColor=none;fillColor=none;align=left;verticalAlign=top;spacingLeft=4;spacingRight=4;overflow=hidden;rotatable=0;points=[[0,0.5],[1,0.5]];portConstraint=eastwest;whiteSpace=wrap;html=1;" parent="FJ-YMm4uMYwA0VOCurAw-71" vertex="1">
          <mxGeometry y="282" width="250" height="26" as="geometry" />
        </mxCell>
        <mxCell id="FJ-YMm4uMYwA0VOCurAw-80" value="+ changeName(String name): void" style="text;strokeColor=none;fillColor=none;align=left;verticalAlign=top;spacingLeft=4;spacingRight=4;overflow=hidden;rotatable=0;points=[[0,0.5],[1,0.5]];portConstraint=eastwest;whiteSpace=wrap;html=1;" parent="FJ-YMm4uMYwA0VOCurAw-71" vertex="1">
          <mxGeometry y="308" width="250" height="26" as="geometry" />
        </mxCell>
        <mxCell id="FJ-YMm4uMYwA0VOCurAw-75" value="# createPorts(): void" style="text;strokeColor=none;fillColor=none;align=left;verticalAlign=top;spacingLeft=4;spacingRight=4;overflow=hidden;rotatable=0;points=[[0,0.5],[1,0.5]];portConstraint=eastwest;whiteSpace=wrap;html=1;" parent="FJ-YMm4uMYwA0VOCurAw-71" vertex="1">
          <mxGeometry y="334" width="250" height="26" as="geometry" />
        </mxCell>
        <mxCell id="FJ-YMm4uMYwA0VOCurAw-85" value="classObj" style="swimlane;fontStyle=1;align=center;verticalAlign=top;childLayout=stackLayout;horizontal=1;startSize=26;horizontalStack=0;resizeParent=1;resizeParentMax=0;resizeLast=0;collapsible=1;marginBottom=0;whiteSpace=wrap;html=1;" parent="1" vertex="1">
          <mxGeometry x="-10" y="1218" width="160" height="86" as="geometry" />
        </mxCell>
        <mxCell id="FJ-YMm4uMYwA0VOCurAw-87" value="" style="line;strokeWidth=1;fillColor=none;align=left;verticalAlign=middle;spacingTop=-1;spacingLeft=3;spacingRight=3;rotatable=0;labelPosition=right;points=[];portConstraint=eastwest;strokeColor=inherit;" parent="FJ-YMm4uMYwA0VOCurAw-85" vertex="1">
          <mxGeometry y="26" width="160" height="8" as="geometry" />
        </mxCell>
        <mxCell id="FJ-YMm4uMYwA0VOCurAw-88" value="+ classObj(int x1, int y1)" style="text;strokeColor=none;fillColor=none;align=left;verticalAlign=top;spacingLeft=4;spacingRight=4;overflow=hidden;rotatable=0;points=[[0,0.5],[1,0.5]];portConstraint=eastwest;whiteSpace=wrap;html=1;" parent="FJ-YMm4uMYwA0VOCurAw-85" vertex="1">
          <mxGeometry y="34" width="160" height="26" as="geometry" />
        </mxCell>
        <mxCell id="FJ-YMm4uMYwA0VOCurAw-89" value="+ draw(Graphics g): void" style="text;strokeColor=none;fillColor=none;align=left;verticalAlign=top;spacingLeft=4;spacingRight=4;overflow=hidden;rotatable=0;points=[[0,0.5],[1,0.5]];portConstraint=eastwest;whiteSpace=wrap;html=1;" parent="FJ-YMm4uMYwA0VOCurAw-85" vertex="1">
          <mxGeometry y="60" width="160" height="26" as="geometry" />
        </mxCell>
        <mxCell id="FJ-YMm4uMYwA0VOCurAw-90" value="usecaseObj" style="swimlane;fontStyle=1;align=center;verticalAlign=top;childLayout=stackLayout;horizontal=1;startSize=26;horizontalStack=0;resizeParent=1;resizeParentMax=0;resizeLast=0;collapsible=1;marginBottom=0;whiteSpace=wrap;html=1;" parent="1" vertex="1">
          <mxGeometry x="230" y="1218" width="160" height="86" as="geometry">
            <mxRectangle x="440" y="1300" width="110" height="30" as="alternateBounds" />
          </mxGeometry>
        </mxCell>
        <mxCell id="FJ-YMm4uMYwA0VOCurAw-91" value="" style="line;strokeWidth=1;fillColor=none;align=left;verticalAlign=middle;spacingTop=-1;spacingLeft=3;spacingRight=3;rotatable=0;labelPosition=right;points=[];portConstraint=eastwest;strokeColor=inherit;" parent="FJ-YMm4uMYwA0VOCurAw-90" vertex="1">
          <mxGeometry y="26" width="160" height="8" as="geometry" />
        </mxCell>
        <mxCell id="FJ-YMm4uMYwA0VOCurAw-92" value="+ usecaseObj(int x1, int y1)" style="text;strokeColor=none;fillColor=none;align=left;verticalAlign=top;spacingLeft=4;spacingRight=4;overflow=hidden;rotatable=0;points=[[0,0.5],[1,0.5]];portConstraint=eastwest;whiteSpace=wrap;html=1;" parent="FJ-YMm4uMYwA0VOCurAw-90" vertex="1">
          <mxGeometry y="34" width="160" height="26" as="geometry" />
        </mxCell>
        <mxCell id="FJ-YMm4uMYwA0VOCurAw-93" value="+ draw(Graphics g): void" style="text;strokeColor=none;fillColor=none;align=left;verticalAlign=top;spacingLeft=4;spacingRight=4;overflow=hidden;rotatable=0;points=[[0,0.5],[1,0.5]];portConstraint=eastwest;whiteSpace=wrap;html=1;" parent="FJ-YMm4uMYwA0VOCurAw-90" vertex="1">
          <mxGeometry y="60" width="160" height="26" as="geometry" />
        </mxCell>
        <mxCell id="FJ-YMm4uMYwA0VOCurAw-94" value="Extends" style="endArrow=block;endSize=16;endFill=0;html=1;rounded=0;exitX=0.5;exitY=0;exitDx=0;exitDy=0;" parent="1" source="FJ-YMm4uMYwA0VOCurAw-85" edge="1">
          <mxGeometry width="160" relative="1" as="geometry">
            <mxPoint x="70" y="1108" as="sourcePoint" />
            <mxPoint x="190" y="1148" as="targetPoint" />
          </mxGeometry>
        </mxCell>
        <mxCell id="FJ-YMm4uMYwA0VOCurAw-95" value="Extends" style="endArrow=block;endSize=16;endFill=0;html=1;rounded=0;exitX=0.5;exitY=0;exitDx=0;exitDy=0;" parent="1" source="FJ-YMm4uMYwA0VOCurAw-90" edge="1">
          <mxGeometry width="160" relative="1" as="geometry">
            <mxPoint x="70" y="1108" as="sourcePoint" />
            <mxPoint x="190" y="1148" as="targetPoint" />
          </mxGeometry>
        </mxCell>
        <mxCell id="FJ-YMm4uMYwA0VOCurAw-110" value="&amp;lt;&amp;lt;Abstract&amp;gt;&amp;gt;&lt;br&gt;MyLine" style="swimlane;fontStyle=1;align=center;verticalAlign=top;childLayout=stackLayout;horizontal=1;startSize=40;horizontalStack=0;resizeParent=1;resizeParentMax=0;resizeLast=0;collapsible=1;marginBottom=0;whiteSpace=wrap;html=1;" parent="1" vertex="1">
          <mxGeometry x="830" y="870" width="220" height="308" as="geometry" />
        </mxCell>
        <mxCell id="FJ-YMm4uMYwA0VOCurAw-111" value="# ports: Array" style="text;strokeColor=none;fillColor=none;align=left;verticalAlign=top;spacingLeft=4;spacingRight=4;overflow=hidden;rotatable=0;points=[[0,0.5],[1,0.5]];portConstraint=eastwest;whiteSpace=wrap;html=1;" parent="FJ-YMm4uMYwA0VOCurAw-110" vertex="1">
          <mxGeometry y="40" width="220" height="26" as="geometry" />
        </mxCell>
        <mxCell id="FJ-YMm4uMYwA0VOCurAw-114" value="- selectedFlag: String" style="text;strokeColor=none;fillColor=none;align=left;verticalAlign=top;spacingLeft=4;spacingRight=4;overflow=hidden;rotatable=0;points=[[0,0.5],[1,0.5]];portConstraint=eastwest;whiteSpace=wrap;html=1;" parent="FJ-YMm4uMYwA0VOCurAw-110" vertex="1">
          <mxGeometry y="66" width="220" height="26" as="geometry" />
        </mxCell>
        <mxCell id="FJ-YMm4uMYwA0VOCurAw-112" value="" style="line;strokeWidth=1;fillColor=none;align=left;verticalAlign=middle;spacingTop=-1;spacingLeft=3;spacingRight=3;rotatable=0;labelPosition=right;points=[];portConstraint=eastwest;strokeColor=inherit;" parent="FJ-YMm4uMYwA0VOCurAw-110" vertex="1">
          <mxGeometry y="92" width="220" height="8" as="geometry" />
        </mxCell>
        <mxCell id="FJ-YMm4uMYwA0VOCurAw-113" value="+ draw(Graphics g): void" style="text;strokeColor=none;fillColor=none;align=left;verticalAlign=top;spacingLeft=4;spacingRight=4;overflow=hidden;rotatable=0;points=[[0,0.5],[1,0.5]];portConstraint=eastwest;whiteSpace=wrap;html=1;" parent="FJ-YMm4uMYwA0VOCurAw-110" vertex="1">
          <mxGeometry y="100" width="220" height="26" as="geometry" />
        </mxCell>
        <mxCell id="FJ-YMm4uMYwA0VOCurAw-115" value="+ setPorts(Port port1, Port port2): void" style="text;strokeColor=none;fillColor=none;align=left;verticalAlign=top;spacingLeft=4;spacingRight=4;overflow=hidden;rotatable=0;points=[[0,0.5],[1,0.5]];portConstraint=eastwest;whiteSpace=wrap;html=1;" parent="FJ-YMm4uMYwA0VOCurAw-110" vertex="1">
          <mxGeometry y="126" width="220" height="26" as="geometry" />
        </mxCell>
        <mxCell id="FJ-YMm4uMYwA0VOCurAw-116" value="+ show(Graphics g): void" style="text;strokeColor=none;fillColor=none;align=left;verticalAlign=top;spacingLeft=4;spacingRight=4;overflow=hidden;rotatable=0;points=[[0,0.5],[1,0.5]];portConstraint=eastwest;whiteSpace=wrap;html=1;" parent="FJ-YMm4uMYwA0VOCurAw-110" vertex="1">
          <mxGeometry y="152" width="220" height="26" as="geometry" />
        </mxCell>
        <mxCell id="FJ-YMm4uMYwA0VOCurAw-117" value="+ resetLocation(): void" style="text;strokeColor=none;fillColor=none;align=left;verticalAlign=top;spacingLeft=4;spacingRight=4;overflow=hidden;rotatable=0;points=[[0,0.5],[1,0.5]];portConstraint=eastwest;whiteSpace=wrap;html=1;" parent="FJ-YMm4uMYwA0VOCurAw-110" vertex="1">
          <mxGeometry y="178" width="220" height="26" as="geometry" />
        </mxCell>
        <mxCell id="FJ-YMm4uMYwA0VOCurAw-118" value="+ resetStartEnd(Point p): void" style="text;strokeColor=none;fillColor=none;align=left;verticalAlign=top;spacingLeft=4;spacingRight=4;overflow=hidden;rotatable=0;points=[[0,0.5],[1,0.5]];portConstraint=eastwest;whiteSpace=wrap;html=1;" parent="FJ-YMm4uMYwA0VOCurAw-110" vertex="1">
          <mxGeometry y="204" width="220" height="26" as="geometry" />
        </mxCell>
        <mxCell id="FJ-YMm4uMYwA0VOCurAw-119" value="+ inside(Point p): String" style="text;strokeColor=none;fillColor=none;align=left;verticalAlign=top;spacingLeft=4;spacingRight=4;overflow=hidden;rotatable=0;points=[[0,0.5],[1,0.5]];portConstraint=eastwest;whiteSpace=wrap;html=1;" parent="FJ-YMm4uMYwA0VOCurAw-110" vertex="1">
          <mxGeometry y="230" width="220" height="26" as="geometry" />
        </mxCell>
        <mxCell id="FJ-YMm4uMYwA0VOCurAw-121" value="+ resetPort(Port port, Line line): void" style="text;strokeColor=none;fillColor=none;align=left;verticalAlign=top;spacingLeft=4;spacingRight=4;overflow=hidden;rotatable=0;points=[[0,0.5],[1,0.5]];portConstraint=eastwest;whiteSpace=wrap;html=1;" parent="FJ-YMm4uMYwA0VOCurAw-110" vertex="1">
          <mxGeometry y="256" width="220" height="26" as="geometry" />
        </mxCell>
        <mxCell id="FJ-YMm4uMYwA0VOCurAw-120" value="- distance(Point p): double" style="text;strokeColor=none;fillColor=none;align=left;verticalAlign=top;spacingLeft=4;spacingRight=4;overflow=hidden;rotatable=0;points=[[0,0.5],[1,0.5]];portConstraint=eastwest;whiteSpace=wrap;html=1;" parent="FJ-YMm4uMYwA0VOCurAw-110" vertex="1">
          <mxGeometry y="282" width="220" height="26" as="geometry" />
        </mxCell>
        <mxCell id="FJ-YMm4uMYwA0VOCurAw-122" value="associationLine" style="swimlane;fontStyle=1;align=center;verticalAlign=top;childLayout=stackLayout;horizontal=1;startSize=26;horizontalStack=0;resizeParent=1;resizeParentMax=0;resizeLast=0;collapsible=1;marginBottom=0;whiteSpace=wrap;html=1;" parent="1" vertex="1">
          <mxGeometry x="535" y="1310" width="250" height="86" as="geometry" />
        </mxCell>
        <mxCell id="FJ-YMm4uMYwA0VOCurAw-124" value="" style="line;strokeWidth=1;fillColor=none;align=left;verticalAlign=middle;spacingTop=-1;spacingLeft=3;spacingRight=3;rotatable=0;labelPosition=right;points=[];portConstraint=eastwest;strokeColor=inherit;" parent="FJ-YMm4uMYwA0VOCurAw-122" vertex="1">
          <mxGeometry y="26" width="250" height="8" as="geometry" />
        </mxCell>
        <mxCell id="FJ-YMm4uMYwA0VOCurAw-125" value="+ associationLine(int x1, inty1, int x2, int y2)" style="text;strokeColor=none;fillColor=none;align=left;verticalAlign=top;spacingLeft=4;spacingRight=4;overflow=hidden;rotatable=0;points=[[0,0.5],[1,0.5]];portConstraint=eastwest;whiteSpace=wrap;html=1;" parent="FJ-YMm4uMYwA0VOCurAw-122" vertex="1">
          <mxGeometry y="34" width="250" height="26" as="geometry" />
        </mxCell>
        <mxCell id="FJ-YMm4uMYwA0VOCurAw-126" value="+ draw(Graphics g): void" style="text;strokeColor=none;fillColor=none;align=left;verticalAlign=top;spacingLeft=4;spacingRight=4;overflow=hidden;rotatable=0;points=[[0,0.5],[1,0.5]];portConstraint=eastwest;whiteSpace=wrap;html=1;" parent="FJ-YMm4uMYwA0VOCurAw-122" vertex="1">
          <mxGeometry y="60" width="250" height="26" as="geometry" />
        </mxCell>
        <mxCell id="FJ-YMm4uMYwA0VOCurAw-127" value="compositionLine" style="swimlane;fontStyle=1;align=center;verticalAlign=top;childLayout=stackLayout;horizontal=1;startSize=26;horizontalStack=0;resizeParent=1;resizeParentMax=0;resizeLast=0;collapsible=1;marginBottom=0;whiteSpace=wrap;html=1;" parent="1" vertex="1">
          <mxGeometry x="1095" y="1310" width="250" height="164" as="geometry" />
        </mxCell>
        <mxCell id="FJ-YMm4uMYwA0VOCurAw-139" value="- arrowW: int" style="text;strokeColor=none;fillColor=none;align=left;verticalAlign=top;spacingLeft=4;spacingRight=4;overflow=hidden;rotatable=0;points=[[0,0.5],[1,0.5]];portConstraint=eastwest;whiteSpace=wrap;html=1;" parent="FJ-YMm4uMYwA0VOCurAw-127" vertex="1">
          <mxGeometry y="26" width="250" height="26" as="geometry" />
        </mxCell>
        <mxCell id="FJ-YMm4uMYwA0VOCurAw-140" value="- arrowH: int" style="text;strokeColor=none;fillColor=none;align=left;verticalAlign=top;spacingLeft=4;spacingRight=4;overflow=hidden;rotatable=0;points=[[0,0.5],[1,0.5]];portConstraint=eastwest;whiteSpace=wrap;html=1;" parent="FJ-YMm4uMYwA0VOCurAw-127" vertex="1">
          <mxGeometry y="52" width="250" height="26" as="geometry" />
        </mxCell>
        <mxCell id="FJ-YMm4uMYwA0VOCurAw-128" value="" style="line;strokeWidth=1;fillColor=none;align=left;verticalAlign=middle;spacingTop=-1;spacingLeft=3;spacingRight=3;rotatable=0;labelPosition=right;points=[];portConstraint=eastwest;strokeColor=inherit;" parent="FJ-YMm4uMYwA0VOCurAw-127" vertex="1">
          <mxGeometry y="78" width="250" height="8" as="geometry" />
        </mxCell>
        <mxCell id="FJ-YMm4uMYwA0VOCurAw-129" value="+ compositionLine(int x1, inty1, int x2, int y2)" style="text;strokeColor=none;fillColor=none;align=left;verticalAlign=top;spacingLeft=4;spacingRight=4;overflow=hidden;rotatable=0;points=[[0,0.5],[1,0.5]];portConstraint=eastwest;whiteSpace=wrap;html=1;" parent="FJ-YMm4uMYwA0VOCurAw-127" vertex="1">
          <mxGeometry y="86" width="250" height="26" as="geometry" />
        </mxCell>
        <mxCell id="FJ-YMm4uMYwA0VOCurAw-130" value="+ draw(Graphics g): void" style="text;strokeColor=none;fillColor=none;align=left;verticalAlign=top;spacingLeft=4;spacingRight=4;overflow=hidden;rotatable=0;points=[[0,0.5],[1,0.5]];portConstraint=eastwest;whiteSpace=wrap;html=1;" parent="FJ-YMm4uMYwA0VOCurAw-127" vertex="1">
          <mxGeometry y="112" width="250" height="26" as="geometry" />
        </mxCell>
        <mxCell id="FJ-YMm4uMYwA0VOCurAw-136" value="- drawArrow(Graphics g): void" style="text;strokeColor=none;fillColor=none;align=left;verticalAlign=top;spacingLeft=4;spacingRight=4;overflow=hidden;rotatable=0;points=[[0,0.5],[1,0.5]];portConstraint=eastwest;whiteSpace=wrap;html=1;" parent="FJ-YMm4uMYwA0VOCurAw-127" vertex="1">
          <mxGeometry y="138" width="250" height="26" as="geometry" />
        </mxCell>
        <mxCell id="FJ-YMm4uMYwA0VOCurAw-131" value="generalizationLine" style="swimlane;fontStyle=1;align=center;verticalAlign=top;childLayout=stackLayout;horizontal=1;startSize=26;horizontalStack=0;resizeParent=1;resizeParentMax=0;resizeLast=0;collapsible=1;marginBottom=0;whiteSpace=wrap;html=1;" parent="1" vertex="1">
          <mxGeometry x="805" y="1310" width="260" height="164" as="geometry" />
        </mxCell>
        <mxCell id="FJ-YMm4uMYwA0VOCurAw-137" value="- arrowW: int" style="text;strokeColor=none;fillColor=none;align=left;verticalAlign=top;spacingLeft=4;spacingRight=4;overflow=hidden;rotatable=0;points=[[0,0.5],[1,0.5]];portConstraint=eastwest;whiteSpace=wrap;html=1;" parent="FJ-YMm4uMYwA0VOCurAw-131" vertex="1">
          <mxGeometry y="26" width="260" height="26" as="geometry" />
        </mxCell>
        <mxCell id="FJ-YMm4uMYwA0VOCurAw-138" value="- arrowH: int" style="text;strokeColor=none;fillColor=none;align=left;verticalAlign=top;spacingLeft=4;spacingRight=4;overflow=hidden;rotatable=0;points=[[0,0.5],[1,0.5]];portConstraint=eastwest;whiteSpace=wrap;html=1;" parent="FJ-YMm4uMYwA0VOCurAw-131" vertex="1">
          <mxGeometry y="52" width="260" height="26" as="geometry" />
        </mxCell>
        <mxCell id="FJ-YMm4uMYwA0VOCurAw-132" value="" style="line;strokeWidth=1;fillColor=none;align=left;verticalAlign=middle;spacingTop=-1;spacingLeft=3;spacingRight=3;rotatable=0;labelPosition=right;points=[];portConstraint=eastwest;strokeColor=inherit;" parent="FJ-YMm4uMYwA0VOCurAw-131" vertex="1">
          <mxGeometry y="78" width="260" height="8" as="geometry" />
        </mxCell>
        <mxCell id="FJ-YMm4uMYwA0VOCurAw-133" value="+ generalizationLine(int x1, inty1, int x2, int y2)" style="text;strokeColor=none;fillColor=none;align=left;verticalAlign=top;spacingLeft=4;spacingRight=4;overflow=hidden;rotatable=0;points=[[0,0.5],[1,0.5]];portConstraint=eastwest;whiteSpace=wrap;html=1;" parent="FJ-YMm4uMYwA0VOCurAw-131" vertex="1">
          <mxGeometry y="86" width="260" height="26" as="geometry" />
        </mxCell>
        <mxCell id="FJ-YMm4uMYwA0VOCurAw-134" value="+ draw(Graphics g): void" style="text;strokeColor=none;fillColor=none;align=left;verticalAlign=top;spacingLeft=4;spacingRight=4;overflow=hidden;rotatable=0;points=[[0,0.5],[1,0.5]];portConstraint=eastwest;whiteSpace=wrap;html=1;" parent="FJ-YMm4uMYwA0VOCurAw-131" vertex="1">
          <mxGeometry y="112" width="260" height="26" as="geometry" />
        </mxCell>
        <mxCell id="FJ-YMm4uMYwA0VOCurAw-135" value="- drawArrow(Graphics g): void" style="text;strokeColor=none;fillColor=none;align=left;verticalAlign=top;spacingLeft=4;spacingRight=4;overflow=hidden;rotatable=0;points=[[0,0.5],[1,0.5]];portConstraint=eastwest;whiteSpace=wrap;html=1;" parent="FJ-YMm4uMYwA0VOCurAw-131" vertex="1">
          <mxGeometry y="138" width="260" height="26" as="geometry" />
        </mxCell>
        <mxCell id="FJ-YMm4uMYwA0VOCurAw-141" value="Group" style="swimlane;fontStyle=1;align=center;verticalAlign=top;childLayout=stackLayout;horizontal=1;startSize=26;horizontalStack=0;resizeParent=1;resizeParentMax=0;resizeLast=0;collapsible=1;marginBottom=0;whiteSpace=wrap;html=1;" parent="1" vertex="1">
          <mxGeometry x="930" y="172" width="260" height="398" as="geometry" />
        </mxCell>
        <mxCell id="FJ-YMm4uMYwA0VOCurAw-210" value="- shapes: ArrayList" style="text;strokeColor=none;fillColor=none;align=left;verticalAlign=top;spacingLeft=4;spacingRight=4;overflow=hidden;rotatable=0;points=[[0,0.5],[1,0.5]];portConstraint=eastwest;whiteSpace=wrap;html=1;" parent="FJ-YMm4uMYwA0VOCurAw-141" vertex="1">
          <mxGeometry y="26" width="260" height="26" as="geometry" />
        </mxCell>
        <mxCell id="FJ-YMm4uMYwA0VOCurAw-142" value="- bounds: Rectangle" style="text;strokeColor=none;fillColor=none;align=left;verticalAlign=top;spacingLeft=4;spacingRight=4;overflow=hidden;rotatable=0;points=[[0,0.5],[1,0.5]];portConstraint=eastwest;whiteSpace=wrap;html=1;" parent="FJ-YMm4uMYwA0VOCurAw-141" vertex="1">
          <mxGeometry y="52" width="260" height="26" as="geometry" />
        </mxCell>
        <mxCell id="FJ-YMm4uMYwA0VOCurAw-211" value="- selectedShape: MyGrapgic" style="text;strokeColor=none;fillColor=none;align=left;verticalAlign=top;spacingLeft=4;spacingRight=4;overflow=hidden;rotatable=0;points=[[0,0.5],[1,0.5]];portConstraint=eastwest;whiteSpace=wrap;html=1;" parent="FJ-YMm4uMYwA0VOCurAw-141" vertex="1">
          <mxGeometry y="78" width="260" height="26" as="geometry" />
        </mxCell>
        <mxCell id="FJ-YMm4uMYwA0VOCurAw-143" value="" style="line;strokeWidth=1;fillColor=none;align=left;verticalAlign=middle;spacingTop=-1;spacingLeft=3;spacingRight=3;rotatable=0;labelPosition=right;points=[];portConstraint=eastwest;strokeColor=inherit;" parent="FJ-YMm4uMYwA0VOCurAw-141" vertex="1">
          <mxGeometry y="104" width="260" height="8" as="geometry" />
        </mxCell>
        <mxCell id="FJ-YMm4uMYwA0VOCurAw-144" value="+ draw(Graphics g): void" style="text;strokeColor=none;fillColor=none;align=left;verticalAlign=top;spacingLeft=4;spacingRight=4;overflow=hidden;rotatable=0;points=[[0,0.5],[1,0.5]];portConstraint=eastwest;whiteSpace=wrap;html=1;" parent="FJ-YMm4uMYwA0VOCurAw-141" vertex="1">
          <mxGeometry y="112" width="260" height="26" as="geometry" />
        </mxCell>
        <mxCell id="FJ-YMm4uMYwA0VOCurAw-146" value="+ show(Grapgics g): void" style="text;strokeColor=none;fillColor=none;align=left;verticalAlign=top;spacingLeft=4;spacingRight=4;overflow=hidden;rotatable=0;points=[[0,0.5],[1,0.5]];portConstraint=eastwest;whiteSpace=wrap;html=1;" parent="FJ-YMm4uMYwA0VOCurAw-141" vertex="1">
          <mxGeometry y="138" width="260" height="26" as="geometry" />
        </mxCell>
        <mxCell id="FJ-YMm4uMYwA0VOCurAw-147" value="+ resetLocation(int moveX, int moveY): void" style="text;strokeColor=none;fillColor=none;align=left;verticalAlign=top;spacingLeft=4;spacingRight=4;overflow=hidden;rotatable=0;points=[[0,0.5],[1,0.5]];portConstraint=eastwest;whiteSpace=wrap;html=1;" parent="FJ-YMm4uMYwA0VOCurAw-141" vertex="1">
          <mxGeometry y="164" width="260" height="26" as="geometry" />
        </mxCell>
        <mxCell id="FJ-YMm4uMYwA0VOCurAw-148" value="+ inside(Point p): String" style="text;strokeColor=none;fillColor=none;align=left;verticalAlign=top;spacingLeft=4;spacingRight=4;overflow=hidden;rotatable=0;points=[[0,0.5],[1,0.5]];portConstraint=eastwest;whiteSpace=wrap;html=1;" parent="FJ-YMm4uMYwA0VOCurAw-141" vertex="1">
          <mxGeometry y="190" width="260" height="26" as="geometry" />
        </mxCell>
        <mxCell id="FJ-YMm4uMYwA0VOCurAw-150" value="+ changeName(String name): void" style="text;strokeColor=none;fillColor=none;align=left;verticalAlign=top;spacingLeft=4;spacingRight=4;overflow=hidden;rotatable=0;points=[[0,0.5],[1,0.5]];portConstraint=eastwest;whiteSpace=wrap;html=1;" parent="FJ-YMm4uMYwA0VOCurAw-141" vertex="1">
          <mxGeometry y="216" width="260" height="26" as="geometry" />
        </mxCell>
        <mxCell id="FJ-YMm4uMYwA0VOCurAw-151" value="+ resetselectedShape(): void" style="text;strokeColor=none;fillColor=none;align=left;verticalAlign=top;spacingLeft=4;spacingRight=4;overflow=hidden;rotatable=0;points=[[0,0.5],[1,0.5]];portConstraint=eastwest;whiteSpace=wrap;html=1;" parent="FJ-YMm4uMYwA0VOCurAw-141" vertex="1">
          <mxGeometry y="242" width="260" height="26" as="geometry" />
        </mxCell>
        <mxCell id="FJ-YMm4uMYwA0VOCurAw-152" value="+ getSelectShape(): Shape" style="text;strokeColor=none;fillColor=none;align=left;verticalAlign=top;spacingLeft=4;spacingRight=4;overflow=hidden;rotatable=0;points=[[0,0.5],[1,0.5]];portConstraint=eastwest;whiteSpace=wrap;html=1;" parent="FJ-YMm4uMYwA0VOCurAw-141" vertex="1">
          <mxGeometry y="268" width="260" height="26" as="geometry" />
        </mxCell>
        <mxCell id="FJ-YMm4uMYwA0VOCurAw-154" value="+ setBounds(): void" style="text;strokeColor=none;fillColor=none;align=left;verticalAlign=top;spacingLeft=4;spacingRight=4;overflow=hidden;rotatable=0;points=[[0,0.5],[1,0.5]];portConstraint=eastwest;whiteSpace=wrap;html=1;" parent="FJ-YMm4uMYwA0VOCurAw-141" vertex="1">
          <mxGeometry y="294" width="260" height="26" as="geometry" />
        </mxCell>
        <mxCell id="FJ-YMm4uMYwA0VOCurAw-153" value="# resetBounds(int moveX, int moveY): void" style="text;strokeColor=none;fillColor=none;align=left;verticalAlign=top;spacingLeft=4;spacingRight=4;overflow=hidden;rotatable=0;points=[[0,0.5],[1,0.5]];portConstraint=eastwest;whiteSpace=wrap;html=1;" parent="FJ-YMm4uMYwA0VOCurAw-141" vertex="1">
          <mxGeometry y="320" width="260" height="26" as="geometry" />
        </mxCell>
        <mxCell id="FJ-YMm4uMYwA0VOCurAw-149" value="+ addShapes(Shape shape): void" style="text;strokeColor=none;fillColor=none;align=left;verticalAlign=top;spacingLeft=4;spacingRight=4;overflow=hidden;rotatable=0;points=[[0,0.5],[1,0.5]];portConstraint=eastwest;whiteSpace=wrap;html=1;" parent="FJ-YMm4uMYwA0VOCurAw-141" vertex="1">
          <mxGeometry y="346" width="260" height="26" as="geometry" />
        </mxCell>
        <mxCell id="FJ-YMm4uMYwA0VOCurAw-145" value="+ getShapes(): Array" style="text;strokeColor=none;fillColor=none;align=left;verticalAlign=top;spacingLeft=4;spacingRight=4;overflow=hidden;rotatable=0;points=[[0,0.5],[1,0.5]];portConstraint=eastwest;whiteSpace=wrap;html=1;" parent="FJ-YMm4uMYwA0VOCurAw-141" vertex="1">
          <mxGeometry y="372" width="260" height="26" as="geometry" />
        </mxCell>
        <mxCell id="FJ-YMm4uMYwA0VOCurAw-155" value="Port" style="swimlane;fontStyle=1;align=center;verticalAlign=top;childLayout=stackLayout;horizontal=1;startSize=26;horizontalStack=0;resizeParent=1;resizeParentMax=0;resizeLast=0;collapsible=1;marginBottom=0;whiteSpace=wrap;html=1;" parent="1" vertex="1">
          <mxGeometry x="472.5" y="910" width="280" height="164" as="geometry" />
        </mxCell>
        <mxCell id="FJ-YMm4uMYwA0VOCurAw-156" value="- lines: ArrayList" style="text;strokeColor=none;fillColor=none;align=left;verticalAlign=top;spacingLeft=4;spacingRight=4;overflow=hidden;rotatable=0;points=[[0,0.5],[1,0.5]];portConstraint=eastwest;whiteSpace=wrap;html=1;" parent="FJ-YMm4uMYwA0VOCurAw-155" vertex="1">
          <mxGeometry y="26" width="280" height="26" as="geometry" />
        </mxCell>
        <mxCell id="FJ-YMm4uMYwA0VOCurAw-157" value="" style="line;strokeWidth=1;fillColor=none;align=left;verticalAlign=middle;spacingTop=-1;spacingLeft=3;spacingRight=3;rotatable=0;labelPosition=right;points=[];portConstraint=eastwest;strokeColor=inherit;" parent="FJ-YMm4uMYwA0VOCurAw-155" vertex="1">
          <mxGeometry y="52" width="280" height="8" as="geometry" />
        </mxCell>
        <mxCell id="FJ-YMm4uMYwA0VOCurAw-158" value="+ setPort(int CenterX, int CenterY, int offset): void" style="text;strokeColor=none;fillColor=none;align=left;verticalAlign=top;spacingLeft=4;spacingRight=4;overflow=hidden;rotatable=0;points=[[0,0.5],[1,0.5]];portConstraint=eastwest;whiteSpace=wrap;html=1;" parent="FJ-YMm4uMYwA0VOCurAw-155" vertex="1">
          <mxGeometry y="60" width="280" height="26" as="geometry" />
        </mxCell>
        <mxCell id="FJ-YMm4uMYwA0VOCurAw-160" value="+ addLine(Line line): void" style="text;strokeColor=none;fillColor=none;align=left;verticalAlign=top;spacingLeft=4;spacingRight=4;overflow=hidden;rotatable=0;points=[[0,0.5],[1,0.5]];portConstraint=eastwest;whiteSpace=wrap;html=1;" parent="FJ-YMm4uMYwA0VOCurAw-155" vertex="1">
          <mxGeometry y="86" width="280" height="26" as="geometry" />
        </mxCell>
        <mxCell id="FJ-YMm4uMYwA0VOCurAw-161" value="+ removeLine(Line line): void" style="text;strokeColor=none;fillColor=none;align=left;verticalAlign=top;spacingLeft=4;spacingRight=4;overflow=hidden;rotatable=0;points=[[0,0.5],[1,0.5]];portConstraint=eastwest;whiteSpace=wrap;html=1;" parent="FJ-YMm4uMYwA0VOCurAw-155" vertex="1">
          <mxGeometry y="112" width="280" height="26" as="geometry" />
        </mxCell>
        <mxCell id="FJ-YMm4uMYwA0VOCurAw-159" value="+ resetLines(): void" style="text;strokeColor=none;fillColor=none;align=left;verticalAlign=top;spacingLeft=4;spacingRight=4;overflow=hidden;rotatable=0;points=[[0,0.5],[1,0.5]];portConstraint=eastwest;whiteSpace=wrap;html=1;" parent="FJ-YMm4uMYwA0VOCurAw-155" vertex="1">
          <mxGeometry y="138" width="280" height="26" as="geometry" />
        </mxCell>
        <mxCell id="FJ-YMm4uMYwA0VOCurAw-178" value="Main" style="swimlane;fontStyle=1;align=center;verticalAlign=top;childLayout=stackLayout;horizontal=1;startSize=26;horizontalStack=0;resizeParent=1;resizeParentMax=0;resizeLast=0;collapsible=1;marginBottom=0;whiteSpace=wrap;html=1;" parent="1" vertex="1">
          <mxGeometry x="805" y="-250" width="160" height="138" as="geometry" />
        </mxCell>
        <mxCell id="FJ-YMm4uMYwA0VOCurAw-179" value="- menuBar: MenuBar" style="text;strokeColor=none;fillColor=none;align=left;verticalAlign=top;spacingLeft=4;spacingRight=4;overflow=hidden;rotatable=0;points=[[0,0.5],[1,0.5]];portConstraint=eastwest;whiteSpace=wrap;html=1;" parent="FJ-YMm4uMYwA0VOCurAw-178" vertex="1">
          <mxGeometry y="26" width="160" height="26" as="geometry" />
        </mxCell>
        <mxCell id="FJ-YMm4uMYwA0VOCurAw-183" value="- toolBar: toolBar" style="text;strokeColor=none;fillColor=none;align=left;verticalAlign=top;spacingLeft=4;spacingRight=4;overflow=hidden;rotatable=0;points=[[0,0.5],[1,0.5]];portConstraint=eastwest;whiteSpace=wrap;html=1;" parent="FJ-YMm4uMYwA0VOCurAw-178" vertex="1">
          <mxGeometry y="52" width="160" height="26" as="geometry" />
        </mxCell>
        <mxCell id="FJ-YMm4uMYwA0VOCurAw-182" value="- canvas: Canvas" style="text;strokeColor=none;fillColor=none;align=left;verticalAlign=top;spacingLeft=4;spacingRight=4;overflow=hidden;rotatable=0;points=[[0,0.5],[1,0.5]];portConstraint=eastwest;whiteSpace=wrap;html=1;" parent="FJ-YMm4uMYwA0VOCurAw-178" vertex="1">
          <mxGeometry y="78" width="160" height="26" as="geometry" />
        </mxCell>
        <mxCell id="FJ-YMm4uMYwA0VOCurAw-180" value="" style="line;strokeWidth=1;fillColor=none;align=left;verticalAlign=middle;spacingTop=-1;spacingLeft=3;spacingRight=3;rotatable=0;labelPosition=right;points=[];portConstraint=eastwest;strokeColor=inherit;" parent="FJ-YMm4uMYwA0VOCurAw-178" vertex="1">
          <mxGeometry y="104" width="160" height="8" as="geometry" />
        </mxCell>
        <mxCell id="FJ-YMm4uMYwA0VOCurAw-181" value="+ Main()" style="text;strokeColor=none;fillColor=none;align=left;verticalAlign=top;spacingLeft=4;spacingRight=4;overflow=hidden;rotatable=0;points=[[0,0.5],[1,0.5]];portConstraint=eastwest;whiteSpace=wrap;html=1;" parent="FJ-YMm4uMYwA0VOCurAw-178" vertex="1">
          <mxGeometry y="112" width="160" height="26" as="geometry" />
        </mxCell>
        <mxCell id="FJ-YMm4uMYwA0VOCurAw-184" value="MenuBar" style="swimlane;fontStyle=1;align=center;verticalAlign=top;childLayout=stackLayout;horizontal=1;startSize=26;horizontalStack=0;resizeParent=1;resizeParentMax=0;resizeLast=0;collapsible=1;marginBottom=0;whiteSpace=wrap;html=1;" parent="1" vertex="1">
          <mxGeometry x="810" y="-10" width="160" height="112" as="geometry" />
        </mxCell>
        <mxCell id="FJ-YMm4uMYwA0VOCurAw-185" value="- canvas: Canvas" style="text;strokeColor=none;fillColor=none;align=left;verticalAlign=top;spacingLeft=4;spacingRight=4;overflow=hidden;rotatable=0;points=[[0,0.5],[1,0.5]];portConstraint=eastwest;whiteSpace=wrap;html=1;" parent="FJ-YMm4uMYwA0VOCurAw-184" vertex="1">
          <mxGeometry y="26" width="160" height="26" as="geometry" />
        </mxCell>
        <mxCell id="FJ-YMm4uMYwA0VOCurAw-186" value="" style="line;strokeWidth=1;fillColor=none;align=left;verticalAlign=middle;spacingTop=-1;spacingLeft=3;spacingRight=3;rotatable=0;labelPosition=right;points=[];portConstraint=eastwest;strokeColor=inherit;" parent="FJ-YMm4uMYwA0VOCurAw-184" vertex="1">
          <mxGeometry y="52" width="160" height="8" as="geometry" />
        </mxCell>
        <mxCell id="FJ-YMm4uMYwA0VOCurAw-188" value="+ MenuBar()" style="text;strokeColor=none;fillColor=none;align=left;verticalAlign=top;spacingLeft=4;spacingRight=4;overflow=hidden;rotatable=0;points=[[0,0.5],[1,0.5]];portConstraint=eastwest;whiteSpace=wrap;html=1;" parent="FJ-YMm4uMYwA0VOCurAw-184" vertex="1">
          <mxGeometry y="60" width="160" height="26" as="geometry" />
        </mxCell>
        <mxCell id="FJ-YMm4uMYwA0VOCurAw-187" value="- changeNameForm(): void" style="text;strokeColor=none;fillColor=none;align=left;verticalAlign=top;spacingLeft=4;spacingRight=4;overflow=hidden;rotatable=0;points=[[0,0.5],[1,0.5]];portConstraint=eastwest;whiteSpace=wrap;html=1;" parent="FJ-YMm4uMYwA0VOCurAw-184" vertex="1">
          <mxGeometry y="86" width="160" height="26" as="geometry" />
        </mxCell>
        <mxCell id="FJ-YMm4uMYwA0VOCurAw-189" value="ToolBar" style="swimlane;fontStyle=1;align=center;verticalAlign=top;childLayout=stackLayout;horizontal=1;startSize=26;horizontalStack=0;resizeParent=1;resizeParentMax=0;resizeLast=0;collapsible=1;marginBottom=0;whiteSpace=wrap;html=1;" parent="1" vertex="1">
          <mxGeometry x="60" y="-250" width="160" height="164" as="geometry" />
        </mxCell>
        <mxCell id="FJ-YMm4uMYwA0VOCurAw-190" value="- ToolNum: int" style="text;strokeColor=none;fillColor=none;align=left;verticalAlign=top;spacingLeft=4;spacingRight=4;overflow=hidden;rotatable=0;points=[[0,0.5],[1,0.5]];portConstraint=eastwest;whiteSpace=wrap;html=1;" parent="FJ-YMm4uMYwA0VOCurAw-189" vertex="1">
          <mxGeometry y="26" width="160" height="26" as="geometry" />
        </mxCell>
        <mxCell id="FJ-YMm4uMYwA0VOCurAw-194" value="- myColor: Color" style="text;strokeColor=none;fillColor=none;align=left;verticalAlign=top;spacingLeft=4;spacingRight=4;overflow=hidden;rotatable=0;points=[[0,0.5],[1,0.5]];portConstraint=eastwest;whiteSpace=wrap;html=1;" parent="FJ-YMm4uMYwA0VOCurAw-189" vertex="1">
          <mxGeometry y="52" width="160" height="26" as="geometry" />
        </mxCell>
        <mxCell id="FJ-YMm4uMYwA0VOCurAw-195" value="- holdBtn: JButton" style="text;strokeColor=none;fillColor=none;align=left;verticalAlign=top;spacingLeft=4;spacingRight=4;overflow=hidden;rotatable=0;points=[[0,0.5],[1,0.5]];portConstraint=eastwest;whiteSpace=wrap;html=1;" parent="FJ-YMm4uMYwA0VOCurAw-189" vertex="1">
          <mxGeometry y="78" width="160" height="26" as="geometry" />
        </mxCell>
        <mxCell id="FJ-YMm4uMYwA0VOCurAw-193" value="- canvas: Canavs" style="text;strokeColor=none;fillColor=none;align=left;verticalAlign=top;spacingLeft=4;spacingRight=4;overflow=hidden;rotatable=0;points=[[0,0.5],[1,0.5]];portConstraint=eastwest;whiteSpace=wrap;html=1;" parent="FJ-YMm4uMYwA0VOCurAw-189" vertex="1">
          <mxGeometry y="104" width="160" height="26" as="geometry" />
        </mxCell>
        <mxCell id="FJ-YMm4uMYwA0VOCurAw-191" value="" style="line;strokeWidth=1;fillColor=none;align=left;verticalAlign=middle;spacingTop=-1;spacingLeft=3;spacingRight=3;rotatable=0;labelPosition=right;points=[];portConstraint=eastwest;strokeColor=inherit;" parent="FJ-YMm4uMYwA0VOCurAw-189" vertex="1">
          <mxGeometry y="130" width="160" height="8" as="geometry" />
        </mxCell>
        <mxCell id="FJ-YMm4uMYwA0VOCurAw-192" value="+ ToolBar()" style="text;strokeColor=none;fillColor=none;align=left;verticalAlign=top;spacingLeft=4;spacingRight=4;overflow=hidden;rotatable=0;points=[[0,0.5],[1,0.5]];portConstraint=eastwest;whiteSpace=wrap;html=1;" parent="FJ-YMm4uMYwA0VOCurAw-189" vertex="1">
          <mxGeometry y="138" width="160" height="26" as="geometry" />
        </mxCell>
        <mxCell id="FJ-YMm4uMYwA0VOCurAw-196" value="Extends" style="endArrow=block;endSize=16;endFill=0;html=1;rounded=0;exitX=0.5;exitY=0;exitDx=0;exitDy=0;entryX=0.479;entryY=1.043;entryDx=0;entryDy=0;entryPerimeter=0;" parent="1" source="FJ-YMm4uMYwA0VOCurAw-122" target="FJ-YMm4uMYwA0VOCurAw-120" edge="1">
          <mxGeometry width="160" relative="1" as="geometry">
            <mxPoint x="780" y="1040" as="sourcePoint" />
            <mxPoint x="940" y="1040" as="targetPoint" />
          </mxGeometry>
        </mxCell>
        <mxCell id="FJ-YMm4uMYwA0VOCurAw-197" value="Extends" style="endArrow=block;endSize=16;endFill=0;html=1;rounded=0;exitX=0.5;exitY=0;exitDx=0;exitDy=0;entryX=0.479;entryY=1.079;entryDx=0;entryDy=0;entryPerimeter=0;" parent="1" source="FJ-YMm4uMYwA0VOCurAw-131" target="FJ-YMm4uMYwA0VOCurAw-120" edge="1">
          <mxGeometry width="160" relative="1" as="geometry">
            <mxPoint x="830" y="1100" as="sourcePoint" />
            <mxPoint x="990" y="1100" as="targetPoint" />
          </mxGeometry>
        </mxCell>
        <mxCell id="FJ-YMm4uMYwA0VOCurAw-198" value="Extends" style="endArrow=block;endSize=16;endFill=0;html=1;rounded=0;exitX=0.5;exitY=0;exitDx=0;exitDy=0;entryX=0.577;entryY=1.152;entryDx=0;entryDy=0;entryPerimeter=0;" parent="1" source="FJ-YMm4uMYwA0VOCurAw-127" target="FJ-YMm4uMYwA0VOCurAw-120" edge="1">
          <mxGeometry width="160" relative="1" as="geometry">
            <mxPoint x="830" y="1100" as="sourcePoint" />
            <mxPoint x="990" y="1100" as="targetPoint" />
          </mxGeometry>
        </mxCell>
        <mxCell id="FJ-YMm4uMYwA0VOCurAw-202" value="" style="endArrow=none;html=1;edgeStyle=orthogonalEdgeStyle;rounded=0;entryX=0;entryY=0.5;entryDx=0;entryDy=0;" parent="1" target="FJ-YMm4uMYwA0VOCurAw-115" edge="1">
          <mxGeometry relative="1" as="geometry">
            <mxPoint x="755" y="1010" as="sourcePoint" />
            <mxPoint x="690" y="1000" as="targetPoint" />
            <Array as="points">
              <mxPoint x="755" y="1009" />
            </Array>
          </mxGeometry>
        </mxCell>
        <mxCell id="FJ-YMm4uMYwA0VOCurAw-203" value="2" style="edgeLabel;resizable=0;html=1;align=left;verticalAlign=bottom;" parent="FJ-YMm4uMYwA0VOCurAw-202" connectable="0" vertex="1">
          <mxGeometry x="-1" relative="1" as="geometry">
            <mxPoint y="-10" as="offset" />
          </mxGeometry>
        </mxCell>
        <mxCell id="FJ-YMm4uMYwA0VOCurAw-204" value="1" style="edgeLabel;resizable=0;html=1;align=right;verticalAlign=bottom;" parent="FJ-YMm4uMYwA0VOCurAw-202" connectable="0" vertex="1">
          <mxGeometry x="1" relative="1" as="geometry" />
        </mxCell>
        <mxCell id="FJ-YMm4uMYwA0VOCurAw-205" value="Extends" style="endArrow=block;endSize=16;endFill=0;html=1;rounded=0;exitX=0.5;exitY=0;exitDx=0;exitDy=0;entryX=0;entryY=0.5;entryDx=0;entryDy=0;" parent="1" source="FJ-YMm4uMYwA0VOCurAw-71" target="FJ-YMm4uMYwA0VOCurAw-67" edge="1">
          <mxGeometry width="160" relative="1" as="geometry">
            <mxPoint x="530" y="900" as="sourcePoint" />
            <mxPoint x="690" y="900" as="targetPoint" />
          </mxGeometry>
        </mxCell>
        <mxCell id="FJ-YMm4uMYwA0VOCurAw-206" value="Extends" style="endArrow=block;endSize=16;endFill=0;html=1;rounded=0;exitX=0;exitY=0.5;exitDx=0;exitDy=0;entryX=1;entryY=0.5;entryDx=0;entryDy=0;" parent="1" source="FJ-YMm4uMYwA0VOCurAw-150" target="FJ-YMm4uMYwA0VOCurAw-62" edge="1">
          <mxGeometry width="160" relative="1" as="geometry">
            <mxPoint x="530" y="560" as="sourcePoint" />
            <mxPoint x="690" y="560" as="targetPoint" />
          </mxGeometry>
        </mxCell>
        <mxCell id="FJ-YMm4uMYwA0VOCurAw-207" value="" style="endArrow=none;html=1;edgeStyle=orthogonalEdgeStyle;rounded=0;exitX=1;exitY=0.5;exitDx=0;exitDy=0;entryX=0;entryY=0.5;entryDx=0;entryDy=0;" parent="1" source="FJ-YMm4uMYwA0VOCurAw-74" target="FJ-YMm4uMYwA0VOCurAw-158" edge="1">
          <mxGeometry relative="1" as="geometry">
            <mxPoint x="520" y="1130" as="sourcePoint" />
            <mxPoint x="680" y="1130" as="targetPoint" />
            <Array as="points">
              <mxPoint x="310" y="983" />
            </Array>
          </mxGeometry>
        </mxCell>
        <mxCell id="FJ-YMm4uMYwA0VOCurAw-208" value="4" style="edgeLabel;resizable=0;html=1;align=left;verticalAlign=bottom;" parent="FJ-YMm4uMYwA0VOCurAw-207" connectable="0" vertex="1">
          <mxGeometry x="-1" relative="1" as="geometry" />
        </mxCell>
        <mxCell id="FJ-YMm4uMYwA0VOCurAw-209" value="1" style="edgeLabel;resizable=0;html=1;align=right;verticalAlign=bottom;" parent="FJ-YMm4uMYwA0VOCurAw-207" connectable="0" vertex="1">
          <mxGeometry x="1" relative="1" as="geometry">
            <mxPoint x="-3" y="-3" as="offset" />
          </mxGeometry>
        </mxCell>
        <mxCell id="FJ-YMm4uMYwA0VOCurAw-212" value="Extends" style="endArrow=block;endSize=16;endFill=0;html=1;rounded=0;exitX=0.5;exitY=0;exitDx=0;exitDy=0;entryX=1;entryY=0.5;entryDx=0;entryDy=0;" parent="1" source="FJ-YMm4uMYwA0VOCurAw-110" target="FJ-YMm4uMYwA0VOCurAw-66" edge="1">
          <mxGeometry width="160" relative="1" as="geometry">
            <mxPoint x="360" y="750" as="sourcePoint" />
            <mxPoint x="520" y="750" as="targetPoint" />
          </mxGeometry>
        </mxCell>
        <mxCell id="FJ-YMm4uMYwA0VOCurAw-213" value="" style="endArrow=diamondThin;endFill=1;endSize=24;html=1;rounded=0;exitX=1;exitY=0.5;exitDx=0;exitDy=0;entryX=0.75;entryY=0;entryDx=0;entryDy=0;" parent="1" source="FJ-YMm4uMYwA0VOCurAw-65" target="FJ-YMm4uMYwA0VOCurAw-110" edge="1">
          <mxGeometry width="160" relative="1" as="geometry">
            <mxPoint x="750" y="600" as="sourcePoint" />
            <mxPoint x="1040" y="590" as="targetPoint" />
            <Array as="points">
              <mxPoint x="995" y="593" />
            </Array>
          </mxGeometry>
        </mxCell>
        <mxCell id="FJ-YMm4uMYwA0VOCurAw-214" value="" style="endArrow=diamondThin;endFill=1;endSize=24;html=1;rounded=0;exitX=0;exitY=0.5;exitDx=0;exitDy=0;entryX=0.25;entryY=0;entryDx=0;entryDy=0;" parent="1" source="FJ-YMm4uMYwA0VOCurAw-65" target="FJ-YMm4uMYwA0VOCurAw-71" edge="1">
          <mxGeometry width="160" relative="1" as="geometry">
            <mxPoint x="360" y="750" as="sourcePoint" />
            <mxPoint x="520" y="750" as="targetPoint" />
            <Array as="points">
              <mxPoint x="123" y="590" />
            </Array>
          </mxGeometry>
        </mxCell>
        <mxCell id="P85ypl1U6JG5JYG-AEBd-1" value="" style="endArrow=none;html=1;rounded=0;entryX=0.496;entryY=1.088;entryDx=0;entryDy=0;entryPerimeter=0;exitX=0.5;exitY=0;exitDx=0;exitDy=0;" edge="1" parent="1" source="FJ-YMm4uMYwA0VOCurAw-54" target="FJ-YMm4uMYwA0VOCurAw-168">
          <mxGeometry width="50" height="50" relative="1" as="geometry">
            <mxPoint x="360" y="360" as="sourcePoint" />
            <mxPoint x="410" y="310" as="targetPoint" />
          </mxGeometry>
        </mxCell>
        <mxCell id="P85ypl1U6JG5JYG-AEBd-2" value="1" style="edgeLabel;html=1;align=center;verticalAlign=middle;resizable=0;points=[];" vertex="1" connectable="0" parent="P85ypl1U6JG5JYG-AEBd-1">
          <mxGeometry x="0.7609" y="-1" relative="1" as="geometry">
            <mxPoint x="10" y="-1" as="offset" />
          </mxGeometry>
        </mxCell>
        <mxCell id="P85ypl1U6JG5JYG-AEBd-3" value="0...*" style="edgeLabel;html=1;align=center;verticalAlign=middle;resizable=0;points=[];" vertex="1" connectable="0" parent="P85ypl1U6JG5JYG-AEBd-1">
          <mxGeometry x="-0.6358" y="-1" relative="1" as="geometry">
            <mxPoint x="14" y="13" as="offset" />
          </mxGeometry>
        </mxCell>
        <mxCell id="P85ypl1U6JG5JYG-AEBd-6" value="" style="endArrow=diamondThin;endFill=1;endSize=24;html=1;rounded=0;entryX=0;entryY=0.5;entryDx=0;entryDy=0;exitX=1;exitY=0.5;exitDx=0;exitDy=0;" edge="1" parent="1" source="FJ-YMm4uMYwA0VOCurAw-164" target="FJ-YMm4uMYwA0VOCurAw-183">
          <mxGeometry width="160" relative="1" as="geometry">
            <mxPoint x="910" y="-100" as="sourcePoint" />
            <mxPoint x="1070" y="-100" as="targetPoint" />
            <Array as="points">
              <mxPoint x="730" y="-185" />
            </Array>
          </mxGeometry>
        </mxCell>
        <mxCell id="P85ypl1U6JG5JYG-AEBd-7" value="1" style="edgeLabel;html=1;align=center;verticalAlign=middle;resizable=0;points=[];" vertex="1" connectable="0" parent="P85ypl1U6JG5JYG-AEBd-6">
          <mxGeometry x="-0.7725" y="-1" relative="1" as="geometry">
            <mxPoint y="15" as="offset" />
          </mxGeometry>
        </mxCell>
        <mxCell id="P85ypl1U6JG5JYG-AEBd-8" value="" style="endArrow=diamondThin;endFill=0;endSize=24;html=1;rounded=0;exitX=1;exitY=0.5;exitDx=0;exitDy=0;entryX=0;entryY=0.5;entryDx=0;entryDy=0;" edge="1" parent="1" source="FJ-YMm4uMYwA0VOCurAw-70" target="FJ-YMm4uMYwA0VOCurAw-211">
          <mxGeometry width="160" relative="1" as="geometry">
            <mxPoint x="770" y="480" as="sourcePoint" />
            <mxPoint x="930" y="480" as="targetPoint" />
          </mxGeometry>
        </mxCell>
        <mxCell id="P85ypl1U6JG5JYG-AEBd-9" value="" style="endArrow=open;endFill=1;endSize=12;html=1;rounded=0;exitX=0.494;exitY=1.079;exitDx=0;exitDy=0;exitPerimeter=0;entryX=0.5;entryY=0;entryDx=0;entryDy=0;" edge="1" parent="1" source="FJ-YMm4uMYwA0VOCurAw-192" target="FJ-YMm4uMYwA0VOCurAw-9">
          <mxGeometry width="160" relative="1" as="geometry">
            <mxPoint x="240" as="sourcePoint" />
            <mxPoint x="400" as="targetPoint" />
          </mxGeometry>
        </mxCell>
        <mxCell id="P85ypl1U6JG5JYG-AEBd-10" value="" style="endArrow=diamondThin;endFill=1;endSize=24;html=1;rounded=0;entryX=1;entryY=0.5;entryDx=0;entryDy=0;exitX=0;exitY=0.5;exitDx=0;exitDy=0;" edge="1" parent="1" source="FJ-YMm4uMYwA0VOCurAw-166" target="FJ-YMm4uMYwA0VOCurAw-195">
          <mxGeometry width="160" relative="1" as="geometry">
            <mxPoint x="460" as="sourcePoint" />
            <mxPoint x="620" as="targetPoint" />
          </mxGeometry>
        </mxCell>
        <mxCell id="P85ypl1U6JG5JYG-AEBd-11" value="" style="endArrow=diamondThin;endFill=1;endSize=24;html=1;rounded=0;entryX=0.474;entryY=1.066;entryDx=0;entryDy=0;entryPerimeter=0;exitX=0.5;exitY=0;exitDx=0;exitDy=0;" edge="1" parent="1" source="FJ-YMm4uMYwA0VOCurAw-184" target="FJ-YMm4uMYwA0VOCurAw-181">
          <mxGeometry width="160" relative="1" as="geometry">
            <mxPoint x="730" as="sourcePoint" />
            <mxPoint x="890" as="targetPoint" />
          </mxGeometry>
        </mxCell>
        <mxCell id="P85ypl1U6JG5JYG-AEBd-12" value="" style="endArrow=open;endFill=1;endSize=12;html=1;rounded=0;entryX=1;entryY=0.5;entryDx=0;entryDy=0;exitX=0;exitY=0.5;exitDx=0;exitDy=0;" edge="1" parent="1" source="FJ-YMm4uMYwA0VOCurAw-188" target="FJ-YMm4uMYwA0VOCurAw-177">
          <mxGeometry width="160" relative="1" as="geometry">
            <mxPoint x="730" as="sourcePoint" />
            <mxPoint x="890" as="targetPoint" />
          </mxGeometry>
        </mxCell>
        <mxCell id="P85ypl1U6JG5JYG-AEBd-13" value="" style="endArrow=open;endFill=1;endSize=12;html=1;rounded=0;exitX=0.522;exitY=1.132;exitDx=0;exitDy=0;exitPerimeter=0;entryX=0.5;entryY=0;entryDx=0;entryDy=0;" edge="1" parent="1" source="FJ-YMm4uMYwA0VOCurAw-35" target="FJ-YMm4uMYwA0VOCurAw-71">
          <mxGeometry width="160" relative="1" as="geometry">
            <mxPoint x="350" y="550" as="sourcePoint" />
            <mxPoint x="510" y="550" as="targetPoint" />
          </mxGeometry>
        </mxCell>
        <mxCell id="P85ypl1U6JG5JYG-AEBd-14" value="" style="endArrow=open;endFill=1;endSize=12;html=1;rounded=0;exitX=1;exitY=0.5;exitDx=0;exitDy=0;entryX=0.058;entryY=0;entryDx=0;entryDy=0;entryPerimeter=0;" edge="1" parent="1" source="FJ-YMm4uMYwA0VOCurAw-36" target="FJ-YMm4uMYwA0VOCurAw-110">
          <mxGeometry width="160" relative="1" as="geometry">
            <mxPoint x="350" y="550" as="sourcePoint" />
            <mxPoint x="900" y="390" as="targetPoint" />
            <Array as="points">
              <mxPoint x="360" y="479" />
              <mxPoint x="360" y="280" />
              <mxPoint x="840" y="280" />
            </Array>
          </mxGeometry>
        </mxCell>
      </root>
    </mxGraphModel>
  </diagram>
</mxfile>
